<?xml version="1.0" encoding="utf-8" standalone="no"?>
<!DOCTYPE svg PUBLIC "-//W3C//DTD SVG 1.1//EN"
  "http://www.w3.org/Graphics/SVG/1.1/DTD/svg11.dtd">
<svg xmlns:xlink="http://www.w3.org/1999/xlink" width="460.8pt" height="345.6pt" viewBox="0 0 460.8 345.6" xmlns="http://www.w3.org/2000/svg" version="1.1">
 <metadata>
  <rdf:RDF xmlns:dc="http://purl.org/dc/elements/1.1/" xmlns:cc="http://creativecommons.org/ns#" xmlns:rdf="http://www.w3.org/1999/02/22-rdf-syntax-ns#">
   <cc:Work>
    <dc:type rdf:resource="http://purl.org/dc/dcmitype/StillImage"/>
    <dc:date>2025-05-30T18:12:01.970078</dc:date>
    <dc:format>image/svg+xml</dc:format>
    <dc:creator>
     <cc:Agent>
      <dc:title>Matplotlib v3.10.3, https://matplotlib.org/</dc:title>
     </cc:Agent>
    </dc:creator>
   </cc:Work>
  </rdf:RDF>
 </metadata>
 <defs>
  <style type="text/css">*{stroke-linejoin: round; stroke-linecap: butt}</style>
 </defs>
 <g id="figure_1">
  <g id="patch_1">
   <path d="M 0 345.6 
L 460.8 345.6 
L 460.8 0 
L 0 0 
z
" style="fill: #ffffff"/>
  </g>
  <g id="axes_1">
   <g id="patch_2">
    <path d="M 0 293.76 
L 460.8 293.76 
L 460.8 3.456 
L 0 3.456 
z
" style="fill: #ffffff"/>
   </g>
   <g id="matplotlib.axis_1">
    <g id="xtick_1">
     <g id="line2d_1">
      <path d="M 114.239223 293.76 
L 114.239223 3.456 
" clip-path="url(#p77b418e854)" style="fill: none; stroke: #b0b0b0; stroke-width: 0.8; stroke-linecap: square"/>
     </g>
     <g id="line2d_2">
      <defs>
       <path id="m63774946dc" d="M 0 0 
L 0 3.5 
" style="stroke: #000000; stroke-width: 0.8"/>
      </defs>
      <g>
       <use xlink:href="#m63774946dc" x="114.239223" y="293.76" style="stroke: #000000; stroke-width: 0.8"/>
      </g>
     </g>
     <g id="text_1">
      <!-- -4 -->
      <g transform="translate(104.26891 315.956875) scale(0.2 -0.2)">
       <defs>
        <path id="DejaVuSans-2d" d="M 313 2009 
L 1997 2009 
L 1997 1497 
L 313 1497 
L 313 2009 
z
" transform="scale(0.015625)"/>
        <path id="DejaVuSans-34" d="M 2419 4116 
L 825 1625 
L 2419 1625 
L 2419 4116 
z
M 2253 4666 
L 3047 4666 
L 3047 1625 
L 3713 1625 
L 3713 1100 
L 3047 1100 
L 3047 0 
L 2419 0 
L 2419 1100 
L 313 1100 
L 313 1709 
L 2253 4666 
z
" transform="scale(0.015625)"/>
       </defs>
       <use xlink:href="#DejaVuSans-2d"/>
       <use xlink:href="#DejaVuSans-34" transform="translate(36.083984 0)"/>
      </g>
     </g>
    </g>
    <g id="xtick_2">
     <g id="line2d_3">
      <path d="M 228.601997 293.76 
L 228.601997 3.456 
" clip-path="url(#p77b418e854)" style="fill: none; stroke: #b0b0b0; stroke-width: 0.8; stroke-linecap: square"/>
     </g>
     <g id="line2d_4">
      <g>
       <use xlink:href="#m63774946dc" x="228.601997" y="293.76" style="stroke: #000000; stroke-width: 0.8"/>
      </g>
     </g>
     <g id="text_2">
      <!-- 0 -->
      <g transform="translate(222.239497 315.956875) scale(0.2 -0.2)">
       <defs>
        <path id="DejaVuSans-30" d="M 2034 4250 
Q 1547 4250 1301 3770 
Q 1056 3291 1056 2328 
Q 1056 1369 1301 889 
Q 1547 409 2034 409 
Q 2525 409 2770 889 
Q 3016 1369 3016 2328 
Q 3016 3291 2770 3770 
Q 2525 4250 2034 4250 
z
M 2034 4750 
Q 2819 4750 3233 4129 
Q 3647 3509 3647 2328 
Q 3647 1150 3233 529 
Q 2819 -91 2034 -91 
Q 1250 -91 836 529 
Q 422 1150 422 2328 
Q 422 3509 836 4129 
Q 1250 4750 2034 4750 
z
" transform="scale(0.015625)"/>
       </defs>
       <use xlink:href="#DejaVuSans-30"/>
      </g>
     </g>
    </g>
    <g id="xtick_3">
     <g id="line2d_5">
      <path d="M 342.964771 293.76 
L 342.964771 3.456 
" clip-path="url(#p77b418e854)" style="fill: none; stroke: #b0b0b0; stroke-width: 0.8; stroke-linecap: square"/>
     </g>
     <g id="line2d_6">
      <g>
       <use xlink:href="#m63774946dc" x="342.964771" y="293.76" style="stroke: #000000; stroke-width: 0.8"/>
      </g>
     </g>
     <g id="text_3">
      <!-- 4 -->
      <g transform="translate(336.602271 315.956875) scale(0.2 -0.2)">
       <use xlink:href="#DejaVuSans-34"/>
      </g>
     </g>
    </g>
    <g id="xtick_4">
     <g id="line2d_7">
      <path d="M 457.327545 293.76 
L 457.327545 3.456 
" clip-path="url(#p77b418e854)" style="fill: none; stroke: #b0b0b0; stroke-width: 0.8; stroke-linecap: square"/>
     </g>
     <g id="line2d_8">
      <g>
       <use xlink:href="#m63774946dc" x="457.327545" y="293.76" style="stroke: #000000; stroke-width: 0.8"/>
      </g>
     </g>
     <g id="text_4">
      <!-- 8 -->
      <g transform="translate(450.965045 315.956875) scale(0.2 -0.2)">
       <defs>
        <path id="DejaVuSans-38" d="M 2034 2216 
Q 1584 2216 1326 1975 
Q 1069 1734 1069 1313 
Q 1069 891 1326 650 
Q 1584 409 2034 409 
Q 2484 409 2743 651 
Q 3003 894 3003 1313 
Q 3003 1734 2745 1975 
Q 2488 2216 2034 2216 
z
M 1403 2484 
Q 997 2584 770 2862 
Q 544 3141 544 3541 
Q 544 4100 942 4425 
Q 1341 4750 2034 4750 
Q 2731 4750 3128 4425 
Q 3525 4100 3525 3541 
Q 3525 3141 3298 2862 
Q 3072 2584 2669 2484 
Q 3125 2378 3379 2068 
Q 3634 1759 3634 1313 
Q 3634 634 3220 271 
Q 2806 -91 2034 -91 
Q 1263 -91 848 271 
Q 434 634 434 1313 
Q 434 1759 690 2068 
Q 947 2378 1403 2484 
z
M 1172 3481 
Q 1172 3119 1398 2916 
Q 1625 2713 2034 2713 
Q 2441 2713 2670 2916 
Q 2900 3119 2900 3481 
Q 2900 3844 2670 4047 
Q 2441 4250 2034 4250 
Q 1625 4250 1398 4047 
Q 1172 3844 1172 3481 
z
" transform="scale(0.015625)"/>
       </defs>
       <use xlink:href="#DejaVuSans-38"/>
      </g>
     </g>
    </g>
    <g id="text_5">
     <!-- log10 of Df -->
     <g transform="translate(175.214063 339.313125) scale(0.2 -0.2)">
      <defs>
       <path id="DejaVuSans-6c" d="M 603 4863 
L 1178 4863 
L 1178 0 
L 603 0 
L 603 4863 
z
" transform="scale(0.015625)"/>
       <path id="DejaVuSans-6f" d="M 1959 3097 
Q 1497 3097 1228 2736 
Q 959 2375 959 1747 
Q 959 1119 1226 758 
Q 1494 397 1959 397 
Q 2419 397 2687 759 
Q 2956 1122 2956 1747 
Q 2956 2369 2687 2733 
Q 2419 3097 1959 3097 
z
M 1959 3584 
Q 2709 3584 3137 3096 
Q 3566 2609 3566 1747 
Q 3566 888 3137 398 
Q 2709 -91 1959 -91 
Q 1206 -91 779 398 
Q 353 888 353 1747 
Q 353 2609 779 3096 
Q 1206 3584 1959 3584 
z
" transform="scale(0.015625)"/>
       <path id="DejaVuSans-67" d="M 2906 1791 
Q 2906 2416 2648 2759 
Q 2391 3103 1925 3103 
Q 1463 3103 1205 2759 
Q 947 2416 947 1791 
Q 947 1169 1205 825 
Q 1463 481 1925 481 
Q 2391 481 2648 825 
Q 2906 1169 2906 1791 
z
M 3481 434 
Q 3481 -459 3084 -895 
Q 2688 -1331 1869 -1331 
Q 1566 -1331 1297 -1286 
Q 1028 -1241 775 -1147 
L 775 -588 
Q 1028 -725 1275 -790 
Q 1522 -856 1778 -856 
Q 2344 -856 2625 -561 
Q 2906 -266 2906 331 
L 2906 616 
Q 2728 306 2450 153 
Q 2172 0 1784 0 
Q 1141 0 747 490 
Q 353 981 353 1791 
Q 353 2603 747 3093 
Q 1141 3584 1784 3584 
Q 2172 3584 2450 3431 
Q 2728 3278 2906 2969 
L 2906 3500 
L 3481 3500 
L 3481 434 
z
" transform="scale(0.015625)"/>
       <path id="DejaVuSans-31" d="M 794 531 
L 1825 531 
L 1825 4091 
L 703 3866 
L 703 4441 
L 1819 4666 
L 2450 4666 
L 2450 531 
L 3481 531 
L 3481 0 
L 794 0 
L 794 531 
z
" transform="scale(0.015625)"/>
       <path id="DejaVuSans-20" transform="scale(0.015625)"/>
       <path id="DejaVuSans-66" d="M 2375 4863 
L 2375 4384 
L 1825 4384 
Q 1516 4384 1395 4259 
Q 1275 4134 1275 3809 
L 1275 3500 
L 2222 3500 
L 2222 3053 
L 1275 3053 
L 1275 0 
L 697 0 
L 697 3053 
L 147 3053 
L 147 3500 
L 697 3500 
L 697 3744 
Q 697 4328 969 4595 
Q 1241 4863 1831 4863 
L 2375 4863 
z
" transform="scale(0.015625)"/>
       <path id="DejaVuSans-44" d="M 1259 4147 
L 1259 519 
L 2022 519 
Q 2988 519 3436 956 
Q 3884 1394 3884 2338 
Q 3884 3275 3436 3711 
Q 2988 4147 2022 4147 
L 1259 4147 
z
M 628 4666 
L 1925 4666 
Q 3281 4666 3915 4102 
Q 4550 3538 4550 2338 
Q 4550 1131 3912 565 
Q 3275 0 1925 0 
L 628 0 
L 628 4666 
z
" transform="scale(0.015625)"/>
      </defs>
      <use xlink:href="#DejaVuSans-6c"/>
      <use xlink:href="#DejaVuSans-6f" transform="translate(27.783203 0)"/>
      <use xlink:href="#DejaVuSans-67" transform="translate(88.964844 0)"/>
      <use xlink:href="#DejaVuSans-31" transform="translate(152.441406 0)"/>
      <use xlink:href="#DejaVuSans-30" transform="translate(216.064453 0)"/>
      <use xlink:href="#DejaVuSans-20" transform="translate(279.6875 0)"/>
      <use xlink:href="#DejaVuSans-6f" transform="translate(311.474609 0)"/>
      <use xlink:href="#DejaVuSans-66" transform="translate(372.65625 0)"/>
      <use xlink:href="#DejaVuSans-20" transform="translate(407.861328 0)"/>
      <use xlink:href="#DejaVuSans-44" transform="translate(439.648438 0)"/>
      <use xlink:href="#DejaVuSans-66" transform="translate(516.650391 0)"/>
     </g>
    </g>
   </g>
   <g id="matplotlib.axis_2">
    <g id="ytick_1">
     <g id="line2d_9">
      <path d="M 0 293.76 
L 460.8 293.76 
" clip-path="url(#p77b418e854)" style="fill: none; stroke: #b0b0b0; stroke-width: 0.8; stroke-linecap: square"/>
     </g>
     <g id="line2d_10">
      <defs>
       <path id="m1cb7ce8504" d="M 0 0 
L -3.5 0 
" style="stroke: #000000; stroke-width: 0.8"/>
      </defs>
      <g>
       <use xlink:href="#m1cb7ce8504" x="0" y="293.76" style="stroke: #000000; stroke-width: 0.8"/>
      </g>
     </g>
    </g>
    <g id="ytick_2">
     <g id="line2d_11">
      <path d="M 0 236.274059 
L 460.8 236.274059 
" clip-path="url(#p77b418e854)" style="fill: none; stroke: #b0b0b0; stroke-width: 0.8; stroke-linecap: square"/>
     </g>
     <g id="line2d_12">
      <g>
       <use xlink:href="#m1cb7ce8504" x="0" y="236.274059" style="stroke: #000000; stroke-width: 0.8"/>
      </g>
     </g>
    </g>
    <g id="ytick_3">
     <g id="line2d_13">
      <path d="M 0 178.788119 
L 460.8 178.788119 
" clip-path="url(#p77b418e854)" style="fill: none; stroke: #b0b0b0; stroke-width: 0.8; stroke-linecap: square"/>
     </g>
     <g id="line2d_14">
      <g>
       <use xlink:href="#m1cb7ce8504" x="0" y="178.788119" style="stroke: #000000; stroke-width: 0.8"/>
      </g>
     </g>
    </g>
    <g id="ytick_4">
     <g id="line2d_15">
      <path d="M 0 121.302178 
L 460.8 121.302178 
" clip-path="url(#p77b418e854)" style="fill: none; stroke: #b0b0b0; stroke-width: 0.8; stroke-linecap: square"/>
     </g>
     <g id="line2d_16">
      <g>
       <use xlink:href="#m1cb7ce8504" x="0" y="121.302178" style="stroke: #000000; stroke-width: 0.8"/>
      </g>
     </g>
    </g>
    <g id="ytick_5">
     <g id="line2d_17">
      <path d="M 0 63.816238 
L 460.8 63.816238 
" clip-path="url(#p77b418e854)" style="fill: none; stroke: #b0b0b0; stroke-width: 0.8; stroke-linecap: square"/>
     </g>
     <g id="line2d_18">
      <g>
       <use xlink:href="#m1cb7ce8504" x="0" y="63.816238" style="stroke: #000000; stroke-width: 0.8"/>
      </g>
     </g>
    </g>
    <g id="ytick_6">
     <g id="line2d_19">
      <path d="M 0 6.330297 
L 460.8 6.330297 
" clip-path="url(#p77b418e854)" style="fill: none; stroke: #b0b0b0; stroke-width: 0.8; stroke-linecap: square"/>
     </g>
     <g id="line2d_20">
      <g>
       <use xlink:href="#m1cb7ce8504" x="0" y="6.330297" style="stroke: #000000; stroke-width: 0.8"/>
      </g>
     </g>
    </g>
   </g>
   <g id="line2d_21">
    <path d="M -1 280.985347 
L 8.289276 280.985347 
L 8.289276 274.59802 
L 10.728942 274.59802 
L 10.728942 268.210693 
L 10.938927 268.210693 
L 10.938927 261.823366 
L 11.803096 261.823366 
L 11.803096 255.43604 
L 15.998791 255.43604 
L 15.998791 249.048713 
L 17.731388 249.048713 
L 17.731388 242.661386 
L 20.290992 242.661386 
L 20.290992 236.274059 
L 21.182011 236.274059 
L 21.182011 229.886733 
L 29.920842 229.886733 
L 29.920842 223.499406 
L 31.730094 223.499406 
L 31.730094 217.112079 
L 32.660049 217.112079 
L 32.660049 210.724752 
L 34.232146 210.724752 
L 34.232146 204.337426 
L 35.439475 204.337426 
L 35.439475 197.950099 
L 38.032316 197.950099 
L 38.032316 191.562772 
L 41.656757 191.562772 
L 41.656757 185.175446 
L 41.918223 185.175446 
L 41.918223 178.788119 
L 44.452811 178.788119 
L 44.452811 172.400792 
L 70.890199 172.400792 
L 70.890199 166.013465 
L 81.571846 166.013465 
L 81.571846 159.626139 
L 105.330691 159.626139 
L 105.330691 153.238812 
L 105.933048 153.238812 
L 105.933048 146.851485 
L 105.954932 146.851485 
L 105.954932 140.464158 
L 113.276635 140.464158 
L 113.276635 134.076832 
L 153.920165 134.076832 
L 153.920165 127.689505 
L 176.141573 127.689505 
L 176.141573 121.302178 
L 193.915073 121.302178 
L 193.915073 114.914851 
L 199.85682 114.914851 
L 199.85682 108.527525 
L 212.08278 108.527525 
L 212.08278 102.140198 
L 237.145903 102.140198 
L 237.145903 95.752871 
L 237.145904 95.752871 
L 237.145904 89.365545 
L 242.180474 89.365545 
L 242.180474 82.978218 
L 242.180474 82.978218 
L 242.180474 76.590891 
L 242.180479 76.590891 
L 242.180479 70.203564 
L 245.752945 70.203564 
L 245.752945 63.816238 
L 248.523271 63.816238 
L 248.523271 57.428911 
L 250.78712 57.428911 
L 250.78712 51.041584 
L 250.787121 51.041584 
L 250.787121 44.654257 
L 250.793697 44.654257 
L 250.793697 38.266931 
L 252.701176 38.266931 
L 252.701176 31.879604 
L 252.701176 31.879604 
L 252.701176 25.492277 
L 255.821756 25.492277 
L 255.821756 19.10495 
L 257.129927 19.10495 
L 257.129927 12.717624 
L 262.667614 12.717624 
L 262.667614 6.330297 
L 262.667614 6.330297 
L 262.667614 6.330297 
L 460.8 6.330297 
" clip-path="url(#p77b418e854)" style="fill: none; stroke: #ff0000; stroke-width: 3; stroke-linecap: square"/>
   </g>
   <g id="line2d_22">
    <path d="M 249.366277 293.76 
L 249.366277 287.372673 
L 259.423261 287.372673 
L 259.423261 280.985347 
L 264.102703 280.985347 
L 264.102703 274.59802 
L 265.089791 274.59802 
L 265.089791 268.210693 
L 267.528545 268.210693 
L 267.528545 261.823366 
L 268.419083 261.823366 
L 268.419083 255.43604 
L 268.589485 255.43604 
L 268.589485 249.048713 
L 269.01553 249.048713 
L 269.01553 242.661386 
L 271.101405 242.661386 
L 271.101405 236.274059 
L 272.320151 236.274059 
L 272.320151 229.886733 
L 272.558718 229.886733 
L 272.558718 223.499406 
L 272.944995 223.499406 
L 272.944995 217.112079 
L 276.487122 217.112079 
L 276.487122 210.724752 
L 276.585462 210.724752 
L 276.585462 204.337426 
L 277.798343 204.337426 
L 277.798343 197.950099 
L 279.332777 197.950099 
L 279.332777 191.562772 
L 280.262668 191.562772 
L 280.262668 185.175446 
L 281.189499 185.175446 
L 281.189499 178.788119 
L 283.584121 178.788119 
L 283.584121 172.400792 
L 288.747187 172.400792 
L 288.747187 166.013465 
L 291.282016 166.013465 
L 291.282016 159.626139 
L 297.349745 159.626139 
L 297.349745 153.238812 
L 297.497139 153.238812 
L 297.497139 146.851485 
L 298.909662 146.851485 
L 298.909662 140.464158 
L 299.7353 140.464158 
L 299.7353 134.076832 
L 300.184161 134.076832 
L 300.184161 127.689505 
L 301.145575 127.689505 
L 301.145575 121.302178 
L 301.335802 121.302178 
L 301.335802 114.914851 
L 301.886084 114.914851 
L 301.886084 108.527525 
L 310.284527 108.527525 
L 310.284527 102.140198 
L 366.06628 102.140198 
L 366.06628 95.752871 
L 380.261006 95.752871 
L 380.261006 89.365545 
L 385.511871 89.365545 
L 385.511871 82.978218 
L 388.635822 82.978218 
L 388.635822 76.590891 
L 401.877205 76.590891 
L 401.877205 70.203564 
L 404.65534 70.203564 
L 404.65534 63.816238 
L 413.519343 63.816238 
L 413.519343 57.428911 
L 418.646863 57.428911 
L 418.646863 51.041584 
L 422.478188 51.041584 
L 422.478188 44.654257 
L 425.242862 44.654257 
L 425.242862 38.266931 
L 426.727814 38.266931 
L 426.727814 31.879604 
L 428.187068 31.879604 
L 428.187068 25.492277 
L 430.010621 25.492277 
L 430.010621 19.10495 
L 436.460184 19.10495 
L 436.460184 12.717624 
L 436.837265 12.717624 
L 436.837265 6.330297 
L 436.837265 6.330297 
L 436.837265 6.330297 
L 460.8 6.330297 
" clip-path="url(#p77b418e854)" style="fill: none; stroke: #00bfbf; stroke-width: 1.5; stroke-linecap: square"/>
   </g>
   <g id="line2d_23">
    <path d="M 249.366277 293.76 
L 249.366277 287.372673 
L 253.357844 287.372673 
L 253.357844 280.985347 
L 257.05262 280.985347 
L 257.05262 274.59802 
L 258.803623 274.59802 
L 258.803623 268.210693 
L 263.829475 268.210693 
L 263.829475 261.823366 
L 264.439597 261.823366 
L 264.439597 255.43604 
L 267.399122 255.43604 
L 267.399122 249.048713 
L 267.528545 249.048713 
L 267.528545 242.661386 
L 268.907212 242.661386 
L 268.907212 236.274059 
L 269.01553 236.274059 
L 269.01553 229.886733 
L 271.352262 229.886733 
L 271.352262 223.499406 
L 272.719748 223.499406 
L 272.719748 217.112079 
L 273.508998 217.112079 
L 273.508998 210.724752 
L 274.480178 210.724752 
L 274.480178 204.337426 
L 276.262916 204.337426 
L 276.262916 197.950099 
L 279.332777 197.950099 
L 279.332777 191.562772 
L 280.262668 191.562772 
L 280.262668 185.175446 
L 281.189499 185.175446 
L 281.189499 178.788119 
L 283.420922 178.788119 
L 283.420922 172.400792 
L 283.486289 172.400792 
L 283.486289 166.013465 
L 285.980202 166.013465 
L 285.980202 159.626139 
L 287.5856 159.626139 
L 287.5856 153.238812 
L 288.697792 153.238812 
L 288.697792 146.851485 
L 290.703985 146.851485 
L 290.703985 140.464158 
L 292.028823 140.464158 
L 292.028823 134.076832 
L 296.623868 134.076832 
L 296.623868 127.689505 
L 296.69796 127.689505 
L 296.69796 121.302178 
L 297.497139 121.302178 
L 297.497139 114.914851 
L 300.55184 114.914851 
L 300.55184 108.527525 
L 301.906475 108.527525 
L 301.906475 102.140198 
L 338.904881 102.140198 
L 338.904881 95.752871 
L 360.025266 95.752871 
L 360.025266 89.365545 
L 380.261006 89.365545 
L 380.261006 82.978218 
L 385.436281 82.978218 
L 385.436281 76.590891 
L 387.91483 76.590891 
L 387.91483 70.203564 
L 394.024653 70.203564 
L 394.024653 63.816238 
L 397.353469 63.816238 
L 397.353469 57.428911 
L 399.259069 57.428911 
L 399.259069 51.041584 
L 402.904525 51.041584 
L 402.904525 44.654257 
L 413.305565 44.654257 
L 413.305565 38.266931 
L 413.519343 38.266931 
L 413.519343 31.879604 
L 417.28927 31.879604 
L 417.28927 25.492277 
L 422.000652 25.492277 
L 422.000652 19.10495 
L 425.248591 19.10495 
L 425.248591 12.717624 
L 429.289946 12.717624 
L 429.289946 6.330297 
L 429.289946 6.330297 
L 429.289946 6.330297 
L 460.8 6.330297 
" clip-path="url(#p77b418e854)" style="fill: none; stroke: #bf00bf; stroke-width: 1.5; stroke-linecap: square"/>
   </g>
   <g id="line2d_24">
    <path d="M 239.575982 293.76 
L 239.575982 287.372673 
L 249.366277 287.372673 
L 249.366277 280.985347 
L 253.357844 280.985347 
L 253.357844 274.59802 
L 255.498629 274.59802 
L 255.498629 268.210693 
L 258.803623 268.210693 
L 258.803623 261.823366 
L 260.003186 261.823366 
L 260.003186 255.43604 
L 263.829475 255.43604 
L 263.829475 249.048713 
L 264.818503 249.048713 
L 264.818503 242.661386 
L 265.689031 242.661386 
L 265.689031 236.274059 
L 268.907212 236.274059 
L 268.907212 229.886733 
L 269.01553 229.886733 
L 269.01553 223.499406 
L 269.324699 223.499406 
L 269.324699 217.112079 
L 269.7101 217.112079 
L 269.7101 210.724752 
L 270.792518 210.724752 
L 270.792518 204.337426 
L 272.070036 204.337426 
L 272.070036 197.950099 
L 279.332777 197.950099 
L 279.332777 191.562772 
L 279.669585 191.562772 
L 279.669585 185.175446 
L 281.189499 185.175446 
L 281.189499 178.788119 
L 281.744088 178.788119 
L 281.744088 172.400792 
L 282.721043 172.400792 
L 282.721043 166.013465 
L 284.276523 166.013465 
L 284.276523 159.626139 
L 285.980202 159.626139 
L 285.980202 153.238812 
L 286.487563 153.238812 
L 286.487563 146.851485 
L 287.5856 146.851485 
L 287.5856 140.464158 
L 287.591658 140.464158 
L 287.591658 134.076832 
L 288.556513 134.076832 
L 288.556513 127.689505 
L 290.1863 127.689505 
L 290.1863 121.302178 
L 292.465594 121.302178 
L 292.465594 114.914851 
L 295.444773 114.914851 
L 295.444773 108.527525 
L 296.743077 108.527525 
L 296.743077 102.140198 
L 338.904881 102.140198 
L 338.904881 95.752871 
L 360.025266 95.752871 
L 360.025266 89.365545 
L 363.099808 89.365545 
L 363.099808 82.978218 
L 371.866313 82.978218 
L 371.866313 76.590891 
L 373.466756 76.590891 
L 373.466756 70.203564 
L 388.968275 70.203564 
L 388.968275 63.816238 
L 394.024653 63.816238 
L 394.024653 57.428911 
L 397.353469 57.428911 
L 397.353469 51.041584 
L 399.259069 51.041584 
L 399.259069 44.654257 
L 405.615972 44.654257 
L 405.615972 38.266931 
L 407.993371 38.266931 
L 407.993371 31.879604 
L 409.106026 31.879604 
L 409.106026 25.492277 
L 411.702574 25.492277 
L 411.702574 19.10495 
L 417.28927 19.10495 
L 417.28927 12.717624 
L 418.47183 12.717624 
L 418.47183 6.330297 
L 418.47183 6.330297 
L 418.47183 6.330297 
L 460.8 6.330297 
" clip-path="url(#p77b418e854)" style="fill: none; stroke: #000000; stroke-width: 1.5; stroke-linecap: square"/>
   </g>
   <g id="line2d_25">
    <path d="M 239.575982 293.76 
L 239.575982 287.372673 
L 240.464355 287.372673 
L 240.464355 280.985347 
L 242.506293 280.985347 
L 242.506293 274.59802 
L 244.248316 274.59802 
L 244.248316 268.210693 
L 244.78515 268.210693 
L 244.78515 261.823366 
L 247.191152 261.823366 
L 247.191152 255.43604 
L 247.78895 255.43604 
L 247.78895 249.048713 
L 252.256667 249.048713 
L 252.256667 242.661386 
L 257.000018 242.661386 
L 257.000018 236.274059 
L 257.085118 236.274059 
L 257.085118 229.886733 
L 262.483517 229.886733 
L 262.483517 223.499406 
L 263.441053 223.499406 
L 263.441053 217.112079 
L 264.243267 217.112079 
L 264.243267 210.724752 
L 264.751195 210.724752 
L 264.751195 204.337426 
L 267.704787 204.337426 
L 267.704787 197.950099 
L 275.655623 197.950099 
L 275.655623 191.562772 
L 276.397567 191.562772 
L 276.397567 185.175446 
L 276.476694 185.175446 
L 276.476694 178.788119 
L 277.573405 178.788119 
L 277.573405 172.400792 
L 278.337747 172.400792 
L 278.337747 166.013465 
L 278.455935 166.013465 
L 278.455935 159.626139 
L 278.643111 159.626139 
L 278.643111 153.238812 
L 278.722114 153.238812 
L 278.722114 146.851485 
L 278.913628 146.851485 
L 278.913628 140.464158 
L 280.260982 140.464158 
L 280.260982 134.076832 
L 281.12253 134.076832 
L 281.12253 127.689505 
L 282.035616 127.689505 
L 282.035616 121.302178 
L 283.21907 121.302178 
L 283.21907 114.914851 
L 284.147402 114.914851 
L 284.147402 108.527525 
L 285.41859 108.527525 
L 285.41859 102.140198 
L 335.790684 102.140198 
L 335.790684 95.752871 
L 338.904881 95.752871 
L 338.904881 89.365545 
L 343.396774 89.365545 
L 343.396774 82.978218 
L 346.744245 82.978218 
L 346.744245 76.590891 
L 360.025266 76.590891 
L 360.025266 70.203564 
L 361.078732 70.203564 
L 361.078732 63.816238 
L 363.099808 63.816238 
L 363.099808 57.428911 
L 364.017165 57.428911 
L 364.017165 51.041584 
L 371.866313 51.041584 
L 371.866313 44.654257 
L 372.240626 44.654257 
L 372.240626 38.266931 
L 381.124755 38.266931 
L 381.124755 31.879604 
L 381.464483 31.879604 
L 381.464483 25.492277 
L 386.386441 25.492277 
L 386.386441 19.10495 
L 389.369373 19.10495 
L 389.369373 12.717624 
L 399.190694 12.717624 
L 399.190694 6.330297 
L 399.190694 6.330297 
L 399.190694 6.330297 
L 460.8 6.330297 
" clip-path="url(#p77b418e854)" style="fill: none; stroke: #00bfbf; stroke-width: 1.5; stroke-linecap: square"/>
   </g>
   <g id="line2d_26">
    <path d="M 176.507473 293.76 
L 176.507473 287.372673 
L 176.77405 287.372673 
L 176.77405 280.985347 
L 178.638417 280.985347 
L 178.638417 274.59802 
L 180.22113 274.59802 
L 180.22113 268.210693 
L 183.541931 268.210693 
L 183.541931 261.823366 
L 185.375063 261.823366 
L 185.375063 255.43604 
L 185.492561 255.43604 
L 185.492561 249.048713 
L 185.76169 249.048713 
L 185.76169 242.661386 
L 191.477184 242.661386 
L 191.477184 236.274059 
L 197.02988 236.274059 
L 197.02988 229.886733 
L 199.561086 229.886733 
L 199.561086 223.499406 
L 202.815029 223.499406 
L 202.815029 217.112079 
L 205.316765 217.112079 
L 205.316765 210.724752 
L 206.074918 210.724752 
L 206.074918 204.337426 
L 228.146163 204.337426 
L 228.146163 197.950099 
L 255.317384 197.950099 
L 255.317384 191.562772 
L 260.564918 191.562772 
L 260.564918 185.175446 
L 261.553116 185.175446 
L 261.553116 178.788119 
L 261.999231 178.788119 
L 261.999231 172.400792 
L 262.685526 172.400792 
L 262.685526 166.013465 
L 262.843027 166.013465 
L 262.843027 159.626139 
L 264.48579 159.626139 
L 264.48579 153.238812 
L 264.901176 153.238812 
L 264.901176 146.851485 
L 264.951165 146.851485 
L 264.951165 140.464158 
L 265.927305 140.464158 
L 265.927305 134.076832 
L 266.364721 134.076832 
L 266.364721 127.689505 
L 266.785224 127.689505 
L 266.785224 121.302178 
L 268.28806 121.302178 
L 268.28806 114.914851 
L 269.001212 114.914851 
L 269.001212 108.527525 
L 272.776515 108.527525 
L 272.776515 102.140198 
L 290.497123 102.140198 
L 290.497123 95.752871 
L 307.99692 95.752871 
L 307.99692 89.365545 
L 310.605257 89.365545 
L 310.605257 82.978218 
L 312.700614 82.978218 
L 312.700614 76.590891 
L 313.169975 76.590891 
L 313.169975 70.203564 
L 314.015383 70.203564 
L 314.015383 63.816238 
L 315.510099 63.816238 
L 315.510099 57.428911 
L 316.988441 57.428911 
L 316.988441 51.041584 
L 316.992456 51.041584 
L 316.992456 44.654257 
L 317.410161 44.654257 
L 317.410161 38.266931 
L 318.964268 38.266931 
L 318.964268 31.879604 
L 322.295627 31.879604 
L 322.295627 25.492277 
L 325.267503 25.492277 
L 325.267503 19.10495 
L 333.164616 19.10495 
L 333.164616 12.717624 
L 342.169345 12.717624 
L 342.169345 6.330297 
L 342.169345 6.330297 
L 342.169345 6.330297 
L 460.8 6.330297 
" clip-path="url(#p77b418e854)" style="fill: none; stroke: #bf00bf; stroke-width: 1.5; stroke-linecap: square"/>
   </g>
   <g id="patch_3">
    <path d="M 0 293.76 
L 0 3.456 
" style="fill: none; stroke: #000000; stroke-width: 0.8; stroke-linejoin: miter; stroke-linecap: square"/>
   </g>
   <g id="patch_4">
    <path d="M 460.8 293.76 
L 460.8 3.456 
" style="fill: none; stroke: #000000; stroke-width: 0.8; stroke-linejoin: miter; stroke-linecap: square"/>
   </g>
   <g id="patch_5">
    <path d="M 0 293.76 
L 460.8 293.76 
" style="fill: none; stroke: #000000; stroke-width: 0.8; stroke-linejoin: miter; stroke-linecap: square"/>
   </g>
   <g id="patch_6">
    <path d="M 0 3.456 
L 460.8 3.456 
" style="fill: none; stroke: #000000; stroke-width: 0.8; stroke-linejoin: miter; stroke-linecap: square"/>
   </g>
   <g id="text_6">
    <!-- {f1-f3}, 5-D -->
    <g transform="translate(331.334 287.95392) scale(0.2 -0.2)">
     <defs>
      <path id="DejaVuSans-7b" d="M 3272 -594 
L 3272 -1044 
L 3078 -1044 
Q 2300 -1044 2036 -812 
Q 1772 -581 1772 109 
L 1772 856 
Q 1772 1328 1603 1509 
Q 1434 1691 991 1691 
L 800 1691 
L 800 2138 
L 991 2138 
Q 1438 2138 1605 2317 
Q 1772 2497 1772 2963 
L 1772 3713 
Q 1772 4403 2036 4633 
Q 2300 4863 3078 4863 
L 3272 4863 
L 3272 4416 
L 3059 4416 
Q 2619 4416 2484 4278 
Q 2350 4141 2350 3700 
L 2350 2925 
Q 2350 2434 2208 2212 
Q 2066 1991 1722 1913 
Q 2069 1828 2209 1606 
Q 2350 1384 2350 897 
L 2350 122 
Q 2350 -319 2484 -456 
Q 2619 -594 3059 -594 
L 3272 -594 
z
" transform="scale(0.015625)"/>
      <path id="DejaVuSans-33" d="M 2597 2516 
Q 3050 2419 3304 2112 
Q 3559 1806 3559 1356 
Q 3559 666 3084 287 
Q 2609 -91 1734 -91 
Q 1441 -91 1130 -33 
Q 819 25 488 141 
L 488 750 
Q 750 597 1062 519 
Q 1375 441 1716 441 
Q 2309 441 2620 675 
Q 2931 909 2931 1356 
Q 2931 1769 2642 2001 
Q 2353 2234 1838 2234 
L 1294 2234 
L 1294 2753 
L 1863 2753 
Q 2328 2753 2575 2939 
Q 2822 3125 2822 3475 
Q 2822 3834 2567 4026 
Q 2313 4219 1838 4219 
Q 1578 4219 1281 4162 
Q 984 4106 628 3988 
L 628 4550 
Q 988 4650 1302 4700 
Q 1616 4750 1894 4750 
Q 2613 4750 3031 4423 
Q 3450 4097 3450 3541 
Q 3450 3153 3228 2886 
Q 3006 2619 2597 2516 
z
" transform="scale(0.015625)"/>
      <path id="DejaVuSans-7d" d="M 800 -594 
L 1019 -594 
Q 1456 -594 1589 -459 
Q 1722 -325 1722 122 
L 1722 897 
Q 1722 1384 1862 1606 
Q 2003 1828 2350 1913 
Q 2003 1991 1862 2212 
Q 1722 2434 1722 2925 
L 1722 3700 
Q 1722 4144 1589 4280 
Q 1456 4416 1019 4416 
L 800 4416 
L 800 4863 
L 997 4863 
Q 1775 4863 2036 4633 
Q 2297 4403 2297 3713 
L 2297 2963 
Q 2297 2497 2465 2317 
Q 2634 2138 3078 2138 
L 3272 2138 
L 3272 1691 
L 3078 1691 
Q 2634 1691 2465 1509 
Q 2297 1328 2297 856 
L 2297 109 
Q 2297 -581 2036 -812 
Q 1775 -1044 997 -1044 
L 800 -1044 
L 800 -594 
z
" transform="scale(0.015625)"/>
      <path id="DejaVuSans-2c" d="M 750 794 
L 1409 794 
L 1409 256 
L 897 -744 
L 494 -744 
L 750 256 
L 750 794 
z
" transform="scale(0.015625)"/>
      <path id="DejaVuSans-35" d="M 691 4666 
L 3169 4666 
L 3169 4134 
L 1269 4134 
L 1269 2991 
Q 1406 3038 1543 3061 
Q 1681 3084 1819 3084 
Q 2600 3084 3056 2656 
Q 3513 2228 3513 1497 
Q 3513 744 3044 326 
Q 2575 -91 1722 -91 
Q 1428 -91 1123 -41 
Q 819 9 494 109 
L 494 744 
Q 775 591 1075 516 
Q 1375 441 1709 441 
Q 2250 441 2565 725 
Q 2881 1009 2881 1497 
Q 2881 1984 2565 2268 
Q 2250 2553 1709 2553 
Q 1456 2553 1204 2497 
Q 953 2441 691 2322 
L 691 4666 
z
" transform="scale(0.015625)"/>
     </defs>
     <use xlink:href="#DejaVuSans-7b"/>
     <use xlink:href="#DejaVuSans-66" transform="translate(63.623047 0)"/>
     <use xlink:href="#DejaVuSans-31" transform="translate(98.828125 0)"/>
     <use xlink:href="#DejaVuSans-2d" transform="translate(162.451172 0)"/>
     <use xlink:href="#DejaVuSans-66" transform="translate(198.535156 0)"/>
     <use xlink:href="#DejaVuSans-33" transform="translate(233.740234 0)"/>
     <use xlink:href="#DejaVuSans-7d" transform="translate(297.363281 0)"/>
     <use xlink:href="#DejaVuSans-2c" transform="translate(360.986328 0)"/>
     <use xlink:href="#DejaVuSans-20" transform="translate(392.773438 0)"/>
     <use xlink:href="#DejaVuSans-35" transform="translate(424.560547 0)"/>
     <use xlink:href="#DejaVuSans-2d" transform="translate(488.183594 0)"/>
     <use xlink:href="#DejaVuSans-44" transform="translate(524.267578 0)"/>
    </g>
   </g>
   <g id="text_7">
    <!-- v2.7.3 -->
    <g style="fill: #808080" transform="translate(217.855 289.19321) scale(0.08 -0.08)">
     <defs>
      <path id="DejaVuSans-76" d="M 191 3500 
L 800 3500 
L 1894 563 
L 2988 3500 
L 3597 3500 
L 2284 0 
L 1503 0 
L 191 3500 
z
" transform="scale(0.015625)"/>
      <path id="DejaVuSans-32" d="M 1228 531 
L 3431 531 
L 3431 0 
L 469 0 
L 469 531 
Q 828 903 1448 1529 
Q 2069 2156 2228 2338 
Q 2531 2678 2651 2914 
Q 2772 3150 2772 3378 
Q 2772 3750 2511 3984 
Q 2250 4219 1831 4219 
Q 1534 4219 1204 4116 
Q 875 4013 500 3803 
L 500 4441 
Q 881 4594 1212 4672 
Q 1544 4750 1819 4750 
Q 2544 4750 2975 4387 
Q 3406 4025 3406 3419 
Q 3406 3131 3298 2873 
Q 3191 2616 2906 2266 
Q 2828 2175 2409 1742 
Q 1991 1309 1228 531 
z
" transform="scale(0.015625)"/>
      <path id="DejaVuSans-2e" d="M 684 794 
L 1344 794 
L 1344 0 
L 684 0 
L 684 794 
z
" transform="scale(0.015625)"/>
      <path id="DejaVuSans-37" d="M 525 4666 
L 3525 4666 
L 3525 4397 
L 1831 0 
L 1172 0 
L 2766 4134 
L 525 4134 
L 525 4666 
z
" transform="scale(0.015625)"/>
     </defs>
     <use xlink:href="#DejaVuSans-76"/>
     <use xlink:href="#DejaVuSans-32" transform="translate(59.179688 0)"/>
     <use xlink:href="#DejaVuSans-2e" transform="translate(122.802734 0)"/>
     <use xlink:href="#DejaVuSans-37" transform="translate(154.589844 0)"/>
     <use xlink:href="#DejaVuSans-2e" transform="translate(218.212891 0)"/>
     <use xlink:href="#DejaVuSans-33" transform="translate(250 0)"/>
    </g>
   </g>
  </g>
 </g>
 <defs>
  <clipPath id="p77b418e854">
   <rect x="0" y="3.456" width="460.8" height="290.304"/>
  </clipPath>
 </defs>
</svg>
