<?xml version="1.0" encoding="utf-8" standalone="no"?>
<!DOCTYPE svg PUBLIC "-//W3C//DTD SVG 1.1//EN"
  "http://www.w3.org/Graphics/SVG/1.1/DTD/svg11.dtd">
<svg xmlns:xlink="http://www.w3.org/1999/xlink" width="460.8pt" height="345.6pt" viewBox="0 0 460.8 345.6" xmlns="http://www.w3.org/2000/svg" version="1.1">
 <metadata>
  <rdf:RDF xmlns:dc="http://purl.org/dc/elements/1.1/" xmlns:cc="http://creativecommons.org/ns#" xmlns:rdf="http://www.w3.org/1999/02/22-rdf-syntax-ns#">
   <cc:Work>
    <dc:type rdf:resource="http://purl.org/dc/dcmitype/StillImage"/>
    <dc:date>2025-05-30T18:12:01.442262</dc:date>
    <dc:format>image/svg+xml</dc:format>
    <dc:creator>
     <cc:Agent>
      <dc:title>Matplotlib v3.10.3, https://matplotlib.org/</dc:title>
     </cc:Agent>
    </dc:creator>
   </cc:Work>
  </rdf:RDF>
 </metadata>
 <defs>
  <style type="text/css">*{stroke-linejoin: round; stroke-linecap: butt}</style>
 </defs>
 <g id="figure_1">
  <g id="patch_1">
   <path d="M 0 345.6 
L 460.8 345.6 
L 460.8 0 
L 0 0 
z
" style="fill: #ffffff"/>
  </g>
  <g id="axes_1">
   <g id="patch_2">
    <path d="M 62.208 293.76 
L 460.8 293.76 
L 460.8 3.456 
L 62.208 3.456 
z
" style="fill: #ffffff"/>
   </g>
   <g id="line2d_1">
    <path d="M 343.255141 293.76 
L 343.255141 287.372673 
L 344.664471 287.372673 
L 344.664471 280.985347 
L 345.04331 280.985347 
L 345.04331 274.59802 
L 345.04331 274.59802 
L 345.04331 268.210693 
L 345.294584 268.210693 
L 345.294584 261.823366 
L 345.918325 261.823366 
L 345.918325 255.43604 
L 346.042321 255.43604 
L 346.042321 249.048713 
L 346.781102 249.048713 
L 346.781102 242.661386 
L 346.781102 242.661386 
L 346.781102 236.274059 
L 347.631978 236.274059 
L 347.631978 229.886733 
L 347.993077 229.886733 
L 347.993077 223.499406 
L 347.993077 223.499406 
L 347.993077 217.112079 
L 348.82751 217.112079 
L 348.82751 210.724752 
L 363.974243 210.724752 
L 363.974243 204.337426 
L 364.343631 204.337426 
L 364.343631 197.950099 
L 373.324429 197.950099 
L 373.324429 191.562772 
L 374.506974 191.562772 
L 374.506974 185.175446 
L 377.181155 185.175446 
L 377.181155 178.788119 
L 378.731731 178.788119 
L 378.731731 172.400792 
L 379.600584 172.400792 
L 379.600584 166.013465 
L 379.74421 166.013465 
L 379.74421 159.626139 
L 380.951719 159.626139 
L 380.951719 153.238812 
L 385.362272 153.238812 
L 385.362272 146.851485 
L 397.293034 146.851485 
L 397.293034 140.464158 
L 406.963905 140.464158 
L 406.963905 134.076832 
L 410.418054 134.076832 
L 410.418054 127.689505 
L 415.923566 127.689505 
L 415.923566 121.302178 
L 421.744949 121.302178 
L 421.744949 114.914851 
L 421.744949 114.914851 
L 421.744949 114.914851 
L 460.8 114.914851 
" clip-path="url(#pf3c79c4b1f)" style="fill: none; stroke: #f5deb3; stroke-width: 1.5; stroke-linecap: square"/>
   </g>
   <g id="line2d_2">
    <path d="M 428.545003 293.76 
L 428.545003 274.59802 
L 437.348689 274.59802 
L 437.348689 255.43604 
L 437.798145 255.43604 
L 437.798145 236.274059 
L 447.203273 236.274059 
L 447.203273 217.112079 
L 450.729234 217.112079 
L 450.729234 197.950099 
L 461.8 197.950099 
" clip-path="url(#pf3c79c4b1f)" style="fill: none; stroke: #f5deb3; stroke-width: 1.5; stroke-linecap: square"/>
   </g>
   <g id="line2d_3">
    <path d="M 153.604522 293.76 
L 153.604522 287.372673 
L 153.604522 287.372673 
L 153.604522 280.985347 
L 153.604522 280.985347 
L 153.604522 274.59802 
L 153.604522 274.59802 
L 153.604522 268.210693 
L 153.604522 268.210693 
L 153.604522 261.823366 
L 153.604522 261.823366 
L 153.604522 255.43604 
L 153.604522 255.43604 
L 153.604522 249.048713 
L 153.604522 249.048713 
L 153.604522 242.661386 
L 153.604522 242.661386 
L 153.604522 236.274059 
L 153.604522 236.274059 
L 153.604522 229.886733 
L 153.604522 229.886733 
L 153.604522 223.499406 
L 153.604522 223.499406 
L 153.604522 217.112079 
L 153.604522 217.112079 
L 153.604522 210.724752 
L 153.604522 210.724752 
L 153.604522 204.337426 
L 153.604522 204.337426 
L 153.604522 197.950099 
L 461.8 197.950099 
" clip-path="url(#pf3c79c4b1f)" style="fill: none; stroke: #f5deb3; stroke-width: 1.5; stroke-linecap: square"/>
   </g>
   <g id="line2d_4">
    <path d="M 329.684055 293.76 
L 329.684055 287.372673 
L 333.138203 287.372673 
L 333.138203 280.985347 
L 335.239684 280.985347 
L 335.239684 274.59802 
L 335.973195 274.59802 
L 335.973195 268.210693 
L 336.118856 268.210693 
L 336.118856 261.823366 
L 336.553788 261.823366 
L 336.553788 255.43604 
L 336.842048 255.43604 
L 336.842048 249.048713 
L 337.698833 249.048713 
L 337.698833 242.661386 
L 337.981804 242.661386 
L 337.981804 236.274059 
L 338.543881 236.274059 
L 338.543881 229.886733 
L 339.927067 229.886733 
L 339.927067 223.499406 
L 342.995404 223.499406 
L 342.995404 217.112079 
L 343.255141 217.112079 
L 343.255141 210.724752 
L 344.28329 210.724752 
L 344.28329 204.337426 
L 347.631978 204.337426 
L 347.631978 197.950099 
L 405.137728 197.950099 
L 405.137728 191.562772 
L 408.332768 191.562772 
L 408.332768 185.175446 
L 408.377877 185.175446 
L 408.377877 178.788119 
L 408.377877 178.788119 
L 408.377877 172.400792 
L 409.095182 172.400792 
L 409.095182 166.013465 
L 409.936288 166.013465 
L 409.936288 159.626139 
L 410.024162 159.626139 
L 410.024162 153.238812 
L 410.505244 153.238812 
L 410.505244 146.851485 
L 412.053967 146.851485 
L 412.053967 140.464158 
L 413.481788 140.464158 
L 413.481788 134.076832 
L 415.442881 134.076832 
L 415.442881 127.689505 
L 415.843711 127.689505 
L 415.843711 121.302178 
L 418.731574 121.302178 
L 418.731574 114.914851 
L 418.959905 114.914851 
L 418.959905 108.527525 
L 420.23806 108.527525 
L 420.23806 102.140198 
L 420.23806 102.140198 
L 420.23806 102.140198 
L 460.8 102.140198 
" clip-path="url(#pf3c79c4b1f)" style="fill: none; stroke: #f5deb3; stroke-width: 1.5; stroke-linecap: square"/>
   </g>
   <g id="line2d_5">
    <path clip-path="url(#pf3c79c4b1f)" style="fill: none; stroke: #f5deb3; stroke-width: 1.5; stroke-linecap: square"/>
   </g>
   <g id="line2d_6"/>
   <g id="line2d_7">
    <path d="M 375.20577 293.76 
L 375.20577 287.372673 
L 375.590597 287.372673 
L 375.590597 280.985347 
L 376.353122 280.985347 
L 376.353122 274.59802 
L 376.730879 274.59802 
L 376.730879 268.210693 
L 377.479523 268.210693 
L 377.479523 261.823366 
L 378.071965 261.823366 
L 378.071965 255.43604 
L 378.658771 255.43604 
L 378.658771 249.048713 
L 379.240048 249.048713 
L 379.240048 242.661386 
L 379.74421 242.661386 
L 379.74421 236.274059 
L 379.959025 236.274059 
L 379.959025 229.886733 
L 381.928692 229.886733 
L 381.928692 223.499406 
L 382.273894 223.499406 
L 382.273894 217.112079 
L 382.890432 217.112079 
L 382.890432 210.724752 
L 385.165501 210.724752 
L 385.165501 204.337426 
L 386.658276 204.337426 
L 386.658276 197.950099 
L 440.455021 197.950099 
L 440.455021 191.562772 
L 441.068567 191.562772 
L 441.068567 185.175446 
L 441.201143 185.175446 
L 441.201143 178.788119 
L 441.833571 178.788119 
L 441.833571 172.400792 
L 442.589204 172.400792 
L 442.589204 166.013465 
L 443.514534 166.013465 
L 443.514534 159.626139 
L 443.819919 159.626139 
L 443.819919 153.238812 
L 444.149055 153.238812 
L 444.149055 146.851485 
L 444.951832 146.851485 
L 444.951832 140.464158 
L 445.81807 140.464158 
L 445.81807 134.076832 
L 447.562688 134.076832 
L 447.562688 127.689505 
L 447.991241 127.689505 
L 447.991241 121.302178 
L 449.25932 121.302178 
L 449.25932 114.914851 
L 450.978385 114.914851 
L 450.978385 108.527525 
L 461.8 108.527525 
" clip-path="url(#pf3c79c4b1f)" style="fill: none; stroke: #f5deb3; stroke-width: 1.5; stroke-linecap: square"/>
   </g>
   <g id="line2d_8">
    <path clip-path="url(#pf3c79c4b1f)" style="fill: none; stroke: #f5deb3; stroke-width: 1.5; stroke-linecap: square"/>
   </g>
   <g id="line2d_9">
    <path d="M 362.284068 293.76 
L 362.284068 287.372673 
L 362.568999 287.372673 
L 362.568999 280.985347 
L 364.343631 280.985347 
L 364.343631 274.59802 
L 366.1581 274.59802 
L 366.1581 268.210693 
L 366.869204 268.210693 
L 366.869204 261.823366 
L 367.045706 261.823366 
L 367.045706 255.43604 
L 368.094245 255.43604 
L 368.094245 249.048713 
L 368.697761 249.048713 
L 368.697761 242.661386 
L 368.954614 242.661386 
L 368.954614 236.274059 
L 370.473673 236.274059 
L 370.473673 229.886733 
L 370.723252 229.886733 
L 370.723252 223.499406 
L 372.118771 223.499406 
L 372.118771 217.112079 
L 376.049242 217.112079 
L 376.049242 210.724752 
L 376.125353 210.724752 
L 376.125353 204.337426 
L 376.655513 204.337426 
L 376.655513 197.950099 
L 429.416812 197.950099 
L 429.416812 191.562772 
L 430.497404 191.562772 
L 430.497404 185.175446 
L 430.623297 185.175446 
L 430.623297 178.788119 
L 430.874315 178.788119 
L 430.874315 172.400792 
L 432.175657 172.400792 
L 432.175657 166.013465 
L 434.521931 166.013465 
L 434.521931 159.626139 
L 436.037958 159.626139 
L 436.037958 153.238812 
L 437.882054 153.238812 
L 437.882054 146.851485 
L 438.077401 146.851485 
L 438.077401 140.464158 
L 438.438553 140.464158 
L 438.438553 134.076832 
L 439.591112 134.076832 
L 439.591112 127.689505 
L 440.562164 127.689505 
L 440.562164 121.302178 
L 440.882481 121.302178 
L 440.882481 114.914851 
L 441.068567 114.914851 
L 441.068567 108.527525 
L 443.769126 108.527525 
L 443.769126 102.140198 
L 461.8 102.140198 
" clip-path="url(#pf3c79c4b1f)" style="fill: none; stroke: #f5deb3; stroke-width: 1.5; stroke-linecap: square"/>
   </g>
   <g id="line2d_10">
    <path clip-path="url(#pf3c79c4b1f)" style="fill: none; stroke: #f5deb3; stroke-width: 1.5; stroke-linecap: square"/>
   </g>
   <g id="line2d_11">
    <path d="M 320.470229 293.76 
L 320.470229 287.372673 
L 325.335708 287.372673 
L 325.335708 280.985347 
L 325.335708 280.985347 
L 325.335708 274.59802 
L 325.853369 274.59802 
L 325.853369 268.210693 
L 327.044613 268.210693 
L 327.044613 261.823366 
L 328.047685 261.823366 
L 328.047685 255.43604 
L 328.213289 255.43604 
L 328.213289 249.048713 
L 329.360235 249.048713 
L 329.360235 242.661386 
L 329.684055 242.661386 
L 329.684055 236.274059 
L 332.678418 236.274059 
L 332.678418 229.886733 
L 332.678418 229.886733 
L 332.678418 223.499406 
L 333.896976 223.499406 
L 333.896976 217.112079 
L 334.197892 217.112079 
L 334.197892 210.724752 
L 336.842048 210.724752 
L 336.842048 204.337426 
L 337.271928 204.337426 
L 337.271928 197.950099 
L 461.8 197.950099 
" clip-path="url(#pf3c79c4b1f)" style="fill: none; stroke: #f5deb3; stroke-width: 1.5; stroke-linecap: square"/>
   </g>
   <g id="line2d_12">
    <path d="M 121.151139 293.76 
L 121.151139 287.372673 
L 121.151139 287.372673 
L 121.151139 280.985347 
L 121.151139 280.985347 
L 121.151139 274.59802 
L 121.151139 274.59802 
L 121.151139 268.210693 
L 121.151139 268.210693 
L 121.151139 261.823366 
L 121.151139 261.823366 
L 121.151139 255.43604 
L 121.151139 255.43604 
L 121.151139 249.048713 
L 121.151139 249.048713 
L 121.151139 242.661386 
L 121.151139 242.661386 
L 121.151139 236.274059 
L 121.151139 236.274059 
L 121.151139 229.886733 
L 121.151139 229.886733 
L 121.151139 223.499406 
L 121.151139 223.499406 
L 121.151139 217.112079 
L 121.151139 217.112079 
L 121.151139 210.724752 
L 121.151139 210.724752 
L 121.151139 204.337426 
L 121.151139 204.337426 
L 121.151139 197.950099 
L 347.631978 197.950099 
L 347.631978 191.562772 
L 349.063861 191.562772 
L 349.063861 185.175446 
L 350.46326 185.175446 
L 350.46326 178.788119 
L 351.151232 178.788119 
L 351.151232 172.400792 
L 353.828869 172.400792 
L 353.828869 166.013465 
L 361.806238 166.013465 
L 361.806238 159.626139 
L 362.946872 159.626139 
L 362.946872 153.238812 
L 366.692195 153.238812 
L 366.692195 146.851485 
L 367.309516 146.851485 
L 367.309516 140.464158 
L 367.309516 140.464158 
L 367.309516 134.076832 
L 373.800171 134.076832 
L 373.800171 127.689505 
L 375.20577 127.689505 
L 375.20577 121.302178 
L 375.590597 121.302178 
L 375.590597 114.914851 
L 385.033971 114.914851 
L 385.033971 108.527525 
L 385.427723 108.527525 
L 385.427723 102.140198 
L 385.427723 102.140198 
L 385.427723 102.140198 
L 460.8 102.140198 
" clip-path="url(#pf3c79c4b1f)" style="fill: none; stroke: #f5deb3; stroke-width: 1.5; stroke-linecap: square"/>
   </g>
   <g id="line2d_13">
    <path d="M 451.853719 293.76 
L 451.853719 287.372673 
L 453.611317 287.372673 
L 453.611317 280.985347 
L 453.611317 280.985347 
L 453.611317 274.59802 
L 454.471687 274.59802 
L 454.471687 268.210693 
L 457.126447 268.210693 
L 457.126447 261.823366 
L 457.126447 261.823366 
L 457.126447 255.43604 
L 459.356723 255.43604 
L 459.356723 249.048713 
L 459.356723 249.048713 
L 459.356723 242.661386 
L 459.396178 242.661386 
L 459.396178 236.274059 
L 459.396178 236.274059 
L 459.396178 229.886733 
L 459.396178 229.886733 
L 459.396178 223.499406 
L 460.35502 223.499406 
L 460.35502 217.112079 
L 460.35502 217.112079 
L 460.35502 210.724752 
L 461.8 210.724752 
" clip-path="url(#pf3c79c4b1f)" style="fill: none; stroke: #f5deb3; stroke-width: 1.5; stroke-linecap: square"/>
   </g>
   <g id="line2d_14">
    <path d="M 274.438888 293.76 
L 274.438888 287.372673 
L 278.642141 287.372673 
L 278.642141 280.985347 
L 282.229636 280.985347 
L 282.229636 274.59802 
L 284.286077 274.59802 
L 284.286077 268.210693 
L 284.286077 268.210693 
L 284.286077 261.823366 
L 285.619914 261.823366 
L 285.619914 255.43604 
L 286.27617 255.43604 
L 286.27617 249.048713 
L 286.925518 249.048713 
L 286.925518 242.661386 
L 289.456644 242.661386 
L 289.456644 236.274059 
L 290.684297 236.274059 
L 290.684297 229.886733 
L 293.36032 229.886733 
L 293.36032 223.499406 
L 294.227138 223.499406 
L 294.227138 217.112079 
L 296.203567 217.112079 
L 296.203567 210.724752 
L 296.203567 210.724752 
L 296.203567 204.337426 
L 305.950458 204.337426 
L 305.950458 197.950099 
L 438.521597 197.950099 
L 438.521597 191.562772 
L 447.920022 191.562772 
L 447.920022 185.175446 
L 461.8 185.175446 
" clip-path="url(#pf3c79c4b1f)" style="fill: none; stroke: #f5deb3; stroke-width: 1.5; stroke-linecap: square"/>
   </g>
   <g id="line2d_15">
    <path clip-path="url(#pf3c79c4b1f)" style="fill: none; stroke: #f5deb3; stroke-width: 1.5; stroke-linecap: square"/>
   </g>
   <g id="line2d_16">
    <path d="M 423.322171 293.76 
L 423.322171 287.372673 
L 425.580767 287.372673 
L 425.580767 280.985347 
L 426.730048 280.985347 
L 426.730048 274.59802 
L 426.997383 274.59802 
L 426.997383 268.210693 
L 427.495535 268.210693 
L 427.495535 261.823366 
L 430.118176 261.823366 
L 430.118176 255.43604 
L 432.664274 255.43604 
L 432.664274 249.048713 
L 433.028213 249.048713 
L 433.028213 242.661386 
L 434.904445 242.661386 
L 434.904445 236.274059 
L 435.922654 236.274059 
L 435.922654 229.886733 
L 436.554174 229.886733 
L 436.554174 223.499406 
L 437.320489 223.499406 
L 437.320489 217.112079 
L 437.770149 217.112079 
L 437.770149 210.724752 
L 439.154577 210.724752 
L 439.154577 204.337426 
L 439.373231 204.337426 
L 439.373231 197.950099 
L 439.536714 197.950099 
L 439.536714 191.562772 
L 440.428207 191.562772 
L 440.428207 185.175446 
L 440.909099 185.175446 
L 440.909099 178.788119 
L 443.412402 178.788119 
L 443.412402 172.400792 
L 444.901963 172.400792 
L 444.901963 166.013465 
L 446.185623 166.013465 
L 446.185623 159.626139 
L 447.443115 159.626139 
L 447.443115 153.238812 
L 450.955777 153.238812 
L 450.955777 146.851485 
L 451.046161 146.851485 
L 451.046161 140.464158 
L 451.136414 140.464158 
L 451.136414 134.076832 
L 452.098378 134.076832 
L 452.098378 127.689505 
L 452.628837 127.689505 
L 452.628837 121.302178 
L 452.694825 121.302178 
L 452.694825 114.914851 
L 453.329093 114.914851 
L 453.329093 108.527525 
L 453.892256 108.527525 
L 453.892256 102.140198 
L 455.886455 102.140198 
L 455.886455 95.752871 
L 457.105984 95.752871 
L 457.105984 89.365545 
L 458.980639 89.365545 
L 458.980639 82.978218 
L 461.8 82.978218 
" clip-path="url(#pf3c79c4b1f)" style="fill: none; stroke: #f5deb3; stroke-width: 1.5; stroke-linecap: square"/>
   </g>
   <g id="line2d_17">
    <path clip-path="url(#pf3c79c4b1f)" style="fill: none; stroke: #f5deb3; stroke-width: 1.5; stroke-linecap: square"/>
   </g>
   <g id="line2d_18">
    <path d="M 116.213502 293.76 
L 116.213502 287.372673 
L 116.213502 287.372673 
L 116.213502 280.985347 
L 116.213502 280.985347 
L 116.213502 274.59802 
L 116.213502 274.59802 
L 116.213502 268.210693 
L 116.213502 268.210693 
L 116.213502 261.823366 
L 116.213502 261.823366 
L 116.213502 255.43604 
L 116.213502 255.43604 
L 116.213502 249.048713 
L 116.213502 249.048713 
L 116.213502 242.661386 
L 116.213502 242.661386 
L 116.213502 236.274059 
L 116.213502 236.274059 
L 116.213502 229.886733 
L 116.213502 229.886733 
L 116.213502 223.499406 
L 116.213502 223.499406 
L 116.213502 217.112079 
L 116.213502 217.112079 
L 116.213502 210.724752 
L 116.213502 210.724752 
L 116.213502 204.337426 
L 129.978676 204.337426 
L 129.978676 197.950099 
L 461.8 197.950099 
" clip-path="url(#pf3c79c4b1f)" style="fill: none; stroke: #f5deb3; stroke-width: 1.5; stroke-linecap: square"/>
   </g>
   <g id="line2d_19">
    <path d="M 0 0 
" clip-path="url(#pf3c79c4b1f)" style="fill: none; stroke: #f5deb3; stroke-width: 1.5; stroke-linecap: square"/>
   </g>
   <g id="line2d_20">
    <path d="M 287.247647 293.76 
L 287.247647 287.372673 
L 292.7756 287.372673 
L 292.7756 280.985347 
L 293.068653 280.985347 
L 293.068653 274.59802 
L 293.93955 274.59802 
L 293.93955 268.210693 
L 295.081944 268.210693 
L 295.081944 261.823366 
L 296.480814 261.823366 
L 296.480814 255.43604 
L 297.57751 255.43604 
L 297.57751 249.048713 
L 298.387424 249.048713 
L 298.387424 242.661386 
L 300.755253 242.661386 
L 300.755253 236.274059 
L 301.269319 236.274059 
L 301.269319 229.886733 
L 304.022566 229.886733 
L 304.022566 223.499406 
L 305.474104 223.499406 
L 305.474104 217.112079 
L 308.049669 217.112079 
L 308.049669 210.724752 
L 311.397011 210.724752 
L 311.397011 204.337426 
L 311.613839 204.337426 
L 311.613839 197.950099 
L 336.553788 197.950099 
L 336.553788 191.562772 
L 353.39059 191.562772 
L 353.39059 185.175446 
L 357.433633 185.175446 
L 357.433633 178.788119 
L 359.757927 178.788119 
L 359.757927 172.400792 
L 368.439834 172.400792 
L 368.439834 166.013465 
L 369.125258 166.013465 
L 369.125258 159.626139 
L 372.523281 159.626139 
L 372.523281 153.238812 
L 379.600584 153.238812 
L 379.600584 146.851485 
L 381.651132 146.851485 
L 381.651132 140.464158 
L 394.53374 140.464158 
L 394.53374 134.076832 
L 398.627736 134.076832 
L 398.627736 127.689505 
L 404.228077 127.689505 
L 404.228077 121.302178 
L 410.505244 121.302178 
L 410.505244 114.914851 
L 422.896004 114.914851 
L 422.896004 108.527525 
L 431.40436 108.527525 
L 431.40436 102.140198 
L 461.8 102.140198 
" clip-path="url(#pf3c79c4b1f)" style="fill: none; stroke: #f5deb3; stroke-width: 1.5; stroke-linecap: square"/>
   </g>
   <g id="line2d_21">
    <path d="M 405.469509 293.76 
L 405.469509 287.372673 
L 405.469509 287.372673 
L 405.469509 280.985347 
L 405.469509 280.985347 
L 405.469509 274.59802 
L 405.563977 274.59802 
L 405.563977 268.210693 
L 405.563977 268.210693 
L 405.563977 261.823366 
L 405.611157 261.823366 
L 405.611157 255.43604 
L 405.611157 255.43604 
L 405.611157 249.048713 
L 405.705408 249.048713 
L 405.705408 242.661386 
L 405.75248 242.661386 
L 405.75248 236.274059 
L 405.846516 236.274059 
L 405.846516 229.886733 
L 405.846516 229.886733 
L 405.846516 223.499406 
L 418.655275 223.499406 
L 418.655275 217.112079 
L 418.693436 217.112079 
L 418.693436 210.724752 
L 418.693436 210.724752 
L 418.693436 204.337426 
L 418.693436 204.337426 
L 418.693436 197.950099 
L 418.693436 197.950099 
L 418.693436 191.562772 
L 418.693436 191.562772 
L 418.693436 185.175446 
L 418.693436 185.175446 
L 418.693436 178.788119 
L 418.731574 178.788119 
L 418.731574 172.400792 
L 418.731574 172.400792 
L 418.731574 166.013465 
L 418.731574 166.013465 
L 418.731574 159.626139 
L 418.731574 159.626139 
L 418.731574 153.238812 
L 418.731574 153.238812 
L 418.731574 146.851485 
L 418.731574 146.851485 
L 418.731574 140.464158 
L 418.731574 140.464158 
L 418.731574 134.076832 
L 418.731574 134.076832 
L 418.731574 127.689505 
L 419.187395 127.689505 
L 419.187395 121.302178 
L 419.225229 121.302178 
L 419.225229 114.914851 
L 419.225229 114.914851 
L 419.225229 108.527525 
L 419.300826 108.527525 
L 419.300826 102.140198 
L 419.489415 102.140198 
L 419.489415 95.752871 
L 419.639873 95.752871 
L 419.639873 89.365545 
L 419.639873 89.365545 
L 419.639873 82.978218 
L 419.714964 82.978218 
L 419.714964 76.590891 
L 419.82743 76.590891 
L 419.82743 70.203564 
L 419.902294 70.203564 
L 419.902294 63.816238 
L 420.014419 63.816238 
L 420.014419 57.428911 
L 420.089056 57.428911 
L 420.089056 51.041584 
L 420.349577 51.041584 
L 420.349577 44.654257 
L 420.534992 44.654257 
L 420.534992 38.266931 
L 420.534992 38.266931 
L 420.534992 31.879604 
L 420.534992 31.879604 
L 420.534992 25.492277 
L 420.867341 25.492277 
L 420.867341 19.10495 
L 420.977727 19.10495 
L 420.977727 12.717624 
L 421.051208 12.717624 
L 421.051208 6.330297 
L 421.051208 6.330297 
L 421.051208 6.330297 
L 460.8 6.330297 
" clip-path="url(#pf3c79c4b1f)" style="fill: none; stroke: #f5deb3; stroke-width: 1.5; stroke-linecap: square"/>
   </g>
   <g id="line2d_22">
    <path d="M 291.887994 293.76 
L 291.887994 287.372673 
L 293.068653 287.372673 
L 293.068653 280.985347 
L 293.93955 280.985347 
L 293.93955 274.59802 
L 295.645305 274.59802 
L 295.645305 268.210693 
L 297.031599 268.210693 
L 297.031599 261.823366 
L 298.118633 261.823366 
L 298.118633 255.43604 
L 298.387424 255.43604 
L 298.387424 249.048713 
L 298.921518 249.048713 
L 298.921518 242.661386 
L 299.186842 242.661386 
L 299.186842 236.274059 
L 301.779136 236.274059 
L 301.779136 229.886733 
L 302.284774 229.886733 
L 302.284774 223.499406 
L 304.022566 223.499406 
L 304.022566 217.112079 
L 304.266873 217.112079 
L 304.266873 210.724752 
L 306.187263 210.724752 
L 306.187263 204.337426 
L 310.079789 204.337426 
L 310.079789 197.950099 
L 350.000312 197.950099 
L 350.000312 191.562772 
L 356.499742 191.562772 
L 356.499742 185.175446 
L 358.959371 185.175446 
L 358.959371 178.788119 
L 360.153361 178.788119 
L 360.153361 172.400792 
L 363.509376 172.400792 
L 363.509376 166.013465 
L 366.336646 166.013465 
L 366.336646 159.626139 
L 374.740786 159.626139 
L 374.740786 153.238812 
L 379.887503 153.238812 
L 379.887503 146.851485 
L 380.74034 146.851485 
L 380.74034 140.464158 
L 382.273894 140.464158 
L 382.273894 134.076832 
L 384.372081 134.076832 
L 384.372081 127.689505 
L 384.372081 127.689505 
L 384.372081 121.302178 
L 385.296751 121.302178 
L 385.296751 114.914851 
L 385.688834 114.914851 
L 385.688834 108.527525 
L 420.977727 108.527525 
L 420.977727 102.140198 
L 461.8 102.140198 
" clip-path="url(#pf3c79c4b1f)" style="fill: none; stroke: #f5deb3; stroke-width: 1.5; stroke-linecap: square"/>
   </g>
   <g id="line2d_23">
    <path clip-path="url(#pf3c79c4b1f)" style="fill: none; stroke: #f5deb3; stroke-width: 1.5; stroke-linecap: square"/>
   </g>
   <g id="line2d_24">
    <path d="M 402.714497 293.76 
L 402.714497 287.372673 
L 408.82717 287.372673 
L 408.82717 280.985347 
L 408.916637 280.985347 
L 408.916637 274.59802 
L 413.315514 274.59802 
L 413.315514 268.210693 
L 413.977937 268.210693 
L 413.977937 261.823366 
L 414.592564 261.823366 
L 414.592564 255.43604 
L 414.877307 255.43604 
L 414.877307 249.048713 
L 418.845845 249.048713 
L 418.845845 242.661386 
L 419.414049 242.661386 
L 419.414049 236.274059 
L 420.126341 236.274059 
L 420.126341 229.886733 
L 421.599546 229.886733 
L 421.599546 223.499406 
L 422.179116 223.499406 
L 422.179116 217.112079 
L 423.144959 217.112079 
L 423.144959 210.724752 
L 430.623297 210.724752 
L 430.623297 204.337426 
L 432.481496 204.337426 
L 432.481496 197.950099 
L 434.166723 197.950099 
L 434.166723 191.562772 
L 434.757604 191.562772 
L 434.757604 185.175446 
L 439.291327 185.175446 
L 439.291327 178.788119 
L 442.537387 178.788119 
L 442.537387 172.400792 
L 442.796036 172.400792 
L 442.796036 166.013465 
L 445.965354 166.013465 
L 445.965354 159.626139 
L 446.185623 159.626139 
L 446.185623 153.238812 
L 446.720771 153.238812 
L 446.720771 146.851485 
L 449.049775 146.851485 
L 449.049775 140.464158 
L 450.250769 140.464158 
L 450.250769 134.076832 
L 450.661108 134.076832 
L 450.661108 127.689505 
L 451.540924 127.689505 
L 451.540924 121.302178 
L 451.742188 121.302178 
L 451.742188 114.914851 
L 452.009523 114.914851 
L 452.009523 108.527525 
L 455.130317 108.527525 
L 455.130317 102.140198 
L 461.8 102.140198 
" clip-path="url(#pf3c79c4b1f)" style="fill: none; stroke: #f5deb3; stroke-width: 1.5; stroke-linecap: square"/>
   </g>
   <g id="line2d_25">
    <path clip-path="url(#pf3c79c4b1f)" style="fill: none; stroke: #f5deb3; stroke-width: 1.5; stroke-linecap: square"/>
   </g>
   <g id="line2d_26">
    <path d="M 421.271129 293.76 
L 421.271129 287.372673 
L 421.708631 287.372673 
L 421.708631 280.985347 
L 422.143052 280.985347 
L 422.143052 274.59802 
L 422.681811 274.59802 
L 422.681811 268.210693 
L 424.756423 268.210693 
L 424.756423 261.823366 
L 425.717094 261.823366 
L 425.717094 255.43604 
L 427.495535 255.43604 
L 427.495535 249.048713 
L 427.495535 249.048713 
L 427.495535 242.661386 
L 427.627699 242.661386 
L 427.627699 236.274059 
L 428.055287 236.274059 
L 428.055287 229.886733 
L 428.088056 229.886733 
L 428.088056 223.499406 
L 428.088056 223.499406 
L 428.088056 217.112079 
L 428.284305 217.112079 
L 428.284305 210.724752 
L 429.224139 210.724752 
L 429.224139 204.337426 
L 429.768491 204.337426 
L 429.768491 197.950099 
L 430.339676 197.950099 
L 430.339676 191.562772 
L 448.393269 191.562772 
L 448.393269 185.175446 
L 453.459511 185.175446 
L 453.459511 178.788119 
L 453.654622 178.788119 
L 453.654622 172.400792 
L 454.557068 172.400792 
L 454.557068 166.013465 
L 461.8 166.013465 
" clip-path="url(#pf3c79c4b1f)" style="fill: none; stroke: #f5deb3; stroke-width: 1.5; stroke-linecap: square"/>
   </g>
   <g id="line2d_27">
    <path d="M 350.693438 293.76 
L 350.693438 287.372673 
L 353.937954 287.372673 
L 353.937954 280.985347 
L 355.018324 280.985347 
L 355.018324 274.59802 
L 356.080097 274.59802 
L 356.080097 268.210693 
L 357.536532 268.210693 
L 357.536532 261.823366 
L 359.059758 261.823366 
L 359.059758 255.43604 
L 359.95596 255.43604 
L 359.95596 249.048713 
L 360.251824 249.048713 
L 360.251824 242.661386 
L 360.644115 242.661386 
L 360.644115 236.274059 
L 362.188798 236.274059 
L 362.188798 229.886733 
L 362.188798 229.886733 
L 362.188798 223.499406 
L 363.509376 223.499406 
L 363.509376 217.112079 
L 364.710819 217.112079 
L 364.710819 210.724752 
L 365.438704 210.724752 
L 365.438704 204.337426 
L 371.874786 204.337426 
L 371.874786 197.950099 
L 461.8 197.950099 
" clip-path="url(#pf3c79c4b1f)" style="fill: none; stroke: #f5deb3; stroke-width: 1.5; stroke-linecap: square"/>
   </g>
   <g id="line2d_28">
    <path d="M 383.162483 293.76 
L 383.162483 287.372673 
L 383.703013 287.372673 
L 383.703013 280.985347 
L 384.172122 280.985347 
L 384.172122 274.59802 
L 384.505029 274.59802 
L 384.505029 268.210693 
L 384.90216 268.210693 
L 384.90216 261.823366 
L 386.658276 261.823366 
L 386.658276 255.43604 
L 386.914241 255.43604 
L 386.914241 249.048713 
L 387.35964 249.048713 
L 387.35964 242.661386 
L 388.115779 242.661386 
L 388.115779 236.274059 
L 388.552617 236.274059 
L 388.552617 229.886733 
L 390.027289 229.886733 
L 390.027289 223.499406 
L 390.390514 223.499406 
L 390.390514 217.112079 
L 394.927551 217.112079 
L 394.927551 210.724752 
L 397.400879 210.724752 
L 397.400879 204.337426 
L 399.62314 204.337426 
L 399.62314 197.950099 
L 405.469509 197.950099 
L 405.469509 191.562772 
L 412.561686 191.562772 
L 412.561686 185.175446 
L 414.388368 185.175446 
L 414.388368 178.788119 
L 415.362402 178.788119 
L 415.362402 172.400792 
L 417.809701 172.400792 
L 417.809701 166.013465 
L 420.126341 166.013465 
L 420.126341 159.626139 
L 421.635929 159.626139 
L 421.635929 153.238812 
L 422.430975 153.238812 
L 422.430975 146.851485 
L 422.502747 146.851485 
L 422.502747 140.464158 
L 423.002822 140.464158 
L 423.002822 134.076832 
L 424.513899 134.076832 
L 424.513899 127.689505 
L 426.124273 127.689505 
L 426.124273 121.302178 
L 428.479932 121.302178 
L 428.479932 114.914851 
L 435.138664 114.914851 
L 435.138664 108.527525 
L 437.826127 108.527525 
L 437.826127 102.140198 
L 461.8 102.140198 
" clip-path="url(#pf3c79c4b1f)" style="fill: none; stroke: #f5deb3; stroke-width: 1.5; stroke-linecap: square"/>
   </g>
   <g id="line2d_29">
    <path d="M 133.959898 293.76 
L 133.959898 287.372673 
L 133.959898 287.372673 
L 133.959898 280.985347 
L 133.959898 280.985347 
L 133.959898 274.59802 
L 137.699681 274.59802 
L 137.699681 268.210693 
L 137.699681 268.210693 
L 137.699681 261.823366 
L 137.699681 261.823366 
L 137.699681 255.43604 
L 137.699681 255.43604 
L 137.699681 249.048713 
L 137.699681 249.048713 
L 137.699681 242.661386 
L 137.699681 242.661386 
L 137.699681 236.274059 
L 208.996319 236.274059 
L 208.996319 229.886733 
L 208.996319 229.886733 
L 208.996319 223.499406 
L 208.996319 223.499406 
L 208.996319 217.112079 
L 210.128232 217.112079 
L 210.128232 210.724752 
L 210.128232 210.724752 
L 210.128232 204.337426 
L 210.128232 204.337426 
L 210.128232 197.950099 
L 372.280893 197.950099 
L 372.280893 191.562772 
L 372.280893 191.562772 
L 372.280893 185.175446 
L 372.280893 185.175446 
L 372.280893 178.788119 
L 394.080569 178.788119 
L 394.080569 172.400792 
L 394.080569 172.400792 
L 394.080569 166.013465 
L 394.080569 166.013465 
L 394.080569 159.626139 
L 394.983605 159.626139 
L 394.983605 153.238812 
L 394.983605 153.238812 
L 394.983605 146.851485 
L 394.983605 146.851485 
L 394.983605 140.464158 
L 461.8 140.464158 
" clip-path="url(#pf3c79c4b1f)" style="fill: none; stroke: #f5deb3; stroke-width: 1.5; stroke-linecap: square"/>
   </g>
   <g id="line2d_30">
    <path d="M 192.006835 293.76 
L 192.006835 287.372673 
L 197.749353 287.372673 
L 197.749353 280.985347 
L 225.004923 280.985347 
L 225.004923 274.59802 
L 225.879938 274.59802 
L 225.879938 268.210693 
L 230.884373 268.210693 
L 230.884373 261.823366 
L 234.008459 261.823366 
L 234.008459 255.43604 
L 235.513108 255.43604 
L 235.513108 249.048713 
L 235.513108 249.048713 
L 235.513108 242.661386 
L 236.251889 242.661386 
L 236.251889 236.274059 
L 236.251889 236.274059 
L 236.251889 229.886733 
L 236.251889 229.886733 
L 236.251889 223.499406 
L 239.121594 223.499406 
L 239.121594 217.112079 
L 239.818636 217.112079 
L 239.818636 210.724752 
L 240.507889 210.724752 
L 240.507889 204.337426 
L 240.507889 204.337426 
L 240.507889 197.950099 
L 240.507889 197.950099 
L 240.507889 191.562772 
L 241.189526 191.562772 
L 241.189526 185.175446 
L 241.863714 185.175446 
L 241.863714 178.788119 
L 241.863714 178.788119 
L 241.863714 172.400792 
L 242.530612 172.400792 
L 242.530612 166.013465 
L 243.843162 166.013465 
L 243.843162 159.626139 
L 244.489111 159.626139 
L 244.489111 153.238812 
L 245.128366 153.238812 
L 245.128366 146.851485 
L 248.228894 146.851485 
L 248.228894 140.464158 
L 249.426748 140.464158 
L 249.426748 134.076832 
L 250.601784 134.076832 
L 250.601784 127.689505 
L 250.601784 127.689505 
L 250.601784 121.302178 
L 251.754855 121.302178 
L 251.754855 114.914851 
L 252.323408 114.914851 
L 252.323408 108.527525 
L 257.738068 108.527525 
L 257.738068 102.140198 
L 257.738068 102.140198 
L 257.738068 102.140198 
L 460.8 102.140198 
" clip-path="url(#pf3c79c4b1f)" style="fill: none; stroke: #f5deb3; stroke-width: 1.5; stroke-linecap: square"/>
   </g>
   <g id="matplotlib.axis_1">
    <g id="xtick_1">
     <g id="line2d_31">
      <path d="M 204.248783 293.76 
L 204.248783 3.456 
" clip-path="url(#pf3c79c4b1f)" style="fill: none; stroke: #b0b0b0; stroke-width: 0.8; stroke-linecap: square"/>
     </g>
     <g id="line2d_32">
      <defs>
       <path id="m38e8254853" d="M 0 0 
L 0 3.5 
" style="stroke: #000000; stroke-width: 0.8"/>
      </defs>
      <g>
       <use xlink:href="#m38e8254853" x="204.248783" y="293.76" style="stroke: #000000; stroke-width: 0.8"/>
      </g>
     </g>
     <g id="text_1">
      <!-- 1 -->
      <g transform="translate(197.886283 315.956875) scale(0.2 -0.2)">
       <defs>
        <path id="DejaVuSans-31" d="M 794 531 
L 1825 531 
L 1825 4091 
L 703 3866 
L 703 4441 
L 1819 4666 
L 2450 4666 
L 2450 531 
L 3481 531 
L 3481 0 
L 794 0 
L 794 531 
z
" transform="scale(0.015625)"/>
       </defs>
       <use xlink:href="#DejaVuSans-31"/>
      </g>
     </g>
    </g>
    <g id="xtick_2">
     <g id="line2d_33">
      <path d="M 104.966536 293.76 
L 104.966536 3.456 
" clip-path="url(#pf3c79c4b1f)" style="fill: none; stroke: #b0b0b0; stroke-width: 0.8; stroke-linecap: square"/>
     </g>
     <g id="line2d_34">
      <defs>
       <path id="m97a7b9e43d" d="M 0 0 
L 0 2 
" style="stroke: #000000; stroke-width: 0.6"/>
      </defs>
      <g>
       <use xlink:href="#m97a7b9e43d" x="104.966536" y="293.76" style="stroke: #000000; stroke-width: 0.6"/>
      </g>
     </g>
    </g>
    <g id="xtick_3">
     <g id="line2d_35">
      <path d="M 129.978676 293.76 
L 129.978676 3.456 
" clip-path="url(#pf3c79c4b1f)" style="fill: none; stroke: #b0b0b0; stroke-width: 0.8; stroke-linecap: square"/>
     </g>
     <g id="line2d_36">
      <g>
       <use xlink:href="#m97a7b9e43d" x="129.978676" y="293.76" style="stroke: #000000; stroke-width: 0.6"/>
      </g>
     </g>
    </g>
    <g id="xtick_4">
     <g id="line2d_37">
      <path d="M 147.725072 293.76 
L 147.725072 3.456 
" clip-path="url(#pf3c79c4b1f)" style="fill: none; stroke: #b0b0b0; stroke-width: 0.8; stroke-linecap: square"/>
     </g>
     <g id="line2d_38">
      <g>
       <use xlink:href="#m97a7b9e43d" x="147.725072" y="293.76" style="stroke: #000000; stroke-width: 0.6"/>
      </g>
     </g>
    </g>
    <g id="xtick_5">
     <g id="line2d_39">
      <path d="M 161.490247 293.76 
L 161.490247 3.456 
" clip-path="url(#pf3c79c4b1f)" style="fill: none; stroke: #b0b0b0; stroke-width: 0.8; stroke-linecap: square"/>
     </g>
     <g id="line2d_40">
      <g>
       <use xlink:href="#m97a7b9e43d" x="161.490247" y="293.76" style="stroke: #000000; stroke-width: 0.6"/>
      </g>
     </g>
    </g>
    <g id="xtick_6">
     <g id="line2d_41">
      <path d="M 172.737213 293.76 
L 172.737213 3.456 
" clip-path="url(#pf3c79c4b1f)" style="fill: none; stroke: #b0b0b0; stroke-width: 0.8; stroke-linecap: square"/>
     </g>
     <g id="line2d_42">
      <g>
       <use xlink:href="#m97a7b9e43d" x="172.737213" y="293.76" style="stroke: #000000; stroke-width: 0.6"/>
      </g>
     </g>
    </g>
    <g id="xtick_7">
     <g id="line2d_43">
      <path d="M 182.246387 293.76 
L 182.246387 3.456 
" clip-path="url(#pf3c79c4b1f)" style="fill: none; stroke: #b0b0b0; stroke-width: 0.8; stroke-linecap: square"/>
     </g>
     <g id="line2d_44">
      <g>
       <use xlink:href="#m97a7b9e43d" x="182.246387" y="293.76" style="stroke: #000000; stroke-width: 0.6"/>
      </g>
     </g>
    </g>
    <g id="xtick_8">
     <g id="line2d_45">
      <path d="M 190.483609 293.76 
L 190.483609 3.456 
" clip-path="url(#pf3c79c4b1f)" style="fill: none; stroke: #b0b0b0; stroke-width: 0.8; stroke-linecap: square"/>
     </g>
     <g id="line2d_46">
      <g>
       <use xlink:href="#m97a7b9e43d" x="190.483609" y="293.76" style="stroke: #000000; stroke-width: 0.6"/>
      </g>
     </g>
    </g>
    <g id="xtick_9">
     <g id="line2d_47">
      <path d="M 197.749353 293.76 
L 197.749353 3.456 
" clip-path="url(#pf3c79c4b1f)" style="fill: none; stroke: #b0b0b0; stroke-width: 0.8; stroke-linecap: square"/>
     </g>
     <g id="line2d_48">
      <g>
       <use xlink:href="#m97a7b9e43d" x="197.749353" y="293.76" style="stroke: #000000; stroke-width: 0.6"/>
      </g>
     </g>
    </g>
    <g id="xtick_10">
     <g id="line2d_49">
      <path d="M 247.007319 293.76 
L 247.007319 3.456 
" clip-path="url(#pf3c79c4b1f)" style="fill: none; stroke: #b0b0b0; stroke-width: 0.8; stroke-linecap: square"/>
     </g>
     <g id="line2d_50">
      <g>
       <use xlink:href="#m97a7b9e43d" x="247.007319" y="293.76" style="stroke: #000000; stroke-width: 0.6"/>
      </g>
     </g>
    </g>
    <g id="xtick_11">
     <g id="line2d_51">
      <path d="M 272.019459 293.76 
L 272.019459 3.456 
" clip-path="url(#pf3c79c4b1f)" style="fill: none; stroke: #b0b0b0; stroke-width: 0.8; stroke-linecap: square"/>
     </g>
     <g id="line2d_52">
      <g>
       <use xlink:href="#m97a7b9e43d" x="272.019459" y="293.76" style="stroke: #000000; stroke-width: 0.6"/>
      </g>
     </g>
    </g>
    <g id="xtick_12">
     <g id="line2d_53">
      <path d="M 289.765855 293.76 
L 289.765855 3.456 
" clip-path="url(#pf3c79c4b1f)" style="fill: none; stroke: #b0b0b0; stroke-width: 0.8; stroke-linecap: square"/>
     </g>
     <g id="line2d_54">
      <g>
       <use xlink:href="#m97a7b9e43d" x="289.765855" y="293.76" style="stroke: #000000; stroke-width: 0.6"/>
      </g>
     </g>
    </g>
    <g id="xtick_13">
     <g id="line2d_55">
      <path d="M 303.531029 293.76 
L 303.531029 3.456 
" clip-path="url(#pf3c79c4b1f)" style="fill: none; stroke: #b0b0b0; stroke-width: 0.8; stroke-linecap: square"/>
     </g>
     <g id="line2d_56">
      <g>
       <use xlink:href="#m97a7b9e43d" x="303.531029" y="293.76" style="stroke: #000000; stroke-width: 0.6"/>
      </g>
     </g>
    </g>
    <g id="xtick_14">
     <g id="line2d_57">
      <path d="M 314.777995 293.76 
L 314.777995 3.456 
" clip-path="url(#pf3c79c4b1f)" style="fill: none; stroke: #b0b0b0; stroke-width: 0.8; stroke-linecap: square"/>
     </g>
     <g id="line2d_58">
      <g>
       <use xlink:href="#m97a7b9e43d" x="314.777995" y="293.76" style="stroke: #000000; stroke-width: 0.6"/>
      </g>
     </g>
    </g>
    <g id="xtick_15">
     <g id="line2d_59">
      <path d="M 324.28717 293.76 
L 324.28717 3.456 
" clip-path="url(#pf3c79c4b1f)" style="fill: none; stroke: #b0b0b0; stroke-width: 0.8; stroke-linecap: square"/>
     </g>
     <g id="line2d_60">
      <g>
       <use xlink:href="#m97a7b9e43d" x="324.28717" y="293.76" style="stroke: #000000; stroke-width: 0.6"/>
      </g>
     </g>
    </g>
    <g id="xtick_16">
     <g id="line2d_61">
      <path d="M 332.524391 293.76 
L 332.524391 3.456 
" clip-path="url(#pf3c79c4b1f)" style="fill: none; stroke: #b0b0b0; stroke-width: 0.8; stroke-linecap: square"/>
     </g>
     <g id="line2d_62">
      <g>
       <use xlink:href="#m97a7b9e43d" x="332.524391" y="293.76" style="stroke: #000000; stroke-width: 0.6"/>
      </g>
     </g>
    </g>
    <g id="xtick_17">
     <g id="line2d_63">
      <path d="M 339.790136 293.76 
L 339.790136 3.456 
" clip-path="url(#pf3c79c4b1f)" style="fill: none; stroke: #b0b0b0; stroke-width: 0.8; stroke-linecap: square"/>
     </g>
     <g id="line2d_64">
      <g>
       <use xlink:href="#m97a7b9e43d" x="339.790136" y="293.76" style="stroke: #000000; stroke-width: 0.6"/>
      </g>
     </g>
    </g>
    <g id="xtick_18">
     <g id="line2d_65">
      <path d="M 389.048102 293.76 
L 389.048102 3.456 
" clip-path="url(#pf3c79c4b1f)" style="fill: none; stroke: #b0b0b0; stroke-width: 0.8; stroke-linecap: square"/>
     </g>
     <g id="line2d_66">
      <g>
       <use xlink:href="#m97a7b9e43d" x="389.048102" y="293.76" style="stroke: #000000; stroke-width: 0.6"/>
      </g>
     </g>
    </g>
    <g id="xtick_19">
     <g id="line2d_67">
      <path d="M 414.060242 293.76 
L 414.060242 3.456 
" clip-path="url(#pf3c79c4b1f)" style="fill: none; stroke: #b0b0b0; stroke-width: 0.8; stroke-linecap: square"/>
     </g>
     <g id="line2d_68">
      <g>
       <use xlink:href="#m97a7b9e43d" x="414.060242" y="293.76" style="stroke: #000000; stroke-width: 0.6"/>
      </g>
     </g>
    </g>
    <g id="xtick_20">
     <g id="line2d_69">
      <path d="M 431.806638 293.76 
L 431.806638 3.456 
" clip-path="url(#pf3c79c4b1f)" style="fill: none; stroke: #b0b0b0; stroke-width: 0.8; stroke-linecap: square"/>
     </g>
     <g id="line2d_70">
      <g>
       <use xlink:href="#m97a7b9e43d" x="431.806638" y="293.76" style="stroke: #000000; stroke-width: 0.6"/>
      </g>
     </g>
    </g>
    <g id="xtick_21">
     <g id="line2d_71">
      <path d="M 445.571812 293.76 
L 445.571812 3.456 
" clip-path="url(#pf3c79c4b1f)" style="fill: none; stroke: #b0b0b0; stroke-width: 0.8; stroke-linecap: square"/>
     </g>
     <g id="line2d_72">
      <g>
       <use xlink:href="#m97a7b9e43d" x="445.571812" y="293.76" style="stroke: #000000; stroke-width: 0.6"/>
      </g>
     </g>
    </g>
    <g id="xtick_22">
     <g id="line2d_73">
      <path d="M 456.818778 293.76 
L 456.818778 3.456 
" clip-path="url(#pf3c79c4b1f)" style="fill: none; stroke: #b0b0b0; stroke-width: 0.8; stroke-linecap: square"/>
     </g>
     <g id="line2d_74">
      <g>
       <use xlink:href="#m97a7b9e43d" x="456.818778" y="293.76" style="stroke: #000000; stroke-width: 0.6"/>
      </g>
     </g>
    </g>
    <g id="text_2">
     <!-- log10 of FEvals / DIM -->
     <g transform="translate(156.430563 339.313125) scale(0.2 -0.2)">
      <defs>
       <path id="DejaVuSans-6c" d="M 603 4863 
L 1178 4863 
L 1178 0 
L 603 0 
L 603 4863 
z
" transform="scale(0.015625)"/>
       <path id="DejaVuSans-6f" d="M 1959 3097 
Q 1497 3097 1228 2736 
Q 959 2375 959 1747 
Q 959 1119 1226 758 
Q 1494 397 1959 397 
Q 2419 397 2687 759 
Q 2956 1122 2956 1747 
Q 2956 2369 2687 2733 
Q 2419 3097 1959 3097 
z
M 1959 3584 
Q 2709 3584 3137 3096 
Q 3566 2609 3566 1747 
Q 3566 888 3137 398 
Q 2709 -91 1959 -91 
Q 1206 -91 779 398 
Q 353 888 353 1747 
Q 353 2609 779 3096 
Q 1206 3584 1959 3584 
z
" transform="scale(0.015625)"/>
       <path id="DejaVuSans-67" d="M 2906 1791 
Q 2906 2416 2648 2759 
Q 2391 3103 1925 3103 
Q 1463 3103 1205 2759 
Q 947 2416 947 1791 
Q 947 1169 1205 825 
Q 1463 481 1925 481 
Q 2391 481 2648 825 
Q 2906 1169 2906 1791 
z
M 3481 434 
Q 3481 -459 3084 -895 
Q 2688 -1331 1869 -1331 
Q 1566 -1331 1297 -1286 
Q 1028 -1241 775 -1147 
L 775 -588 
Q 1028 -725 1275 -790 
Q 1522 -856 1778 -856 
Q 2344 -856 2625 -561 
Q 2906 -266 2906 331 
L 2906 616 
Q 2728 306 2450 153 
Q 2172 0 1784 0 
Q 1141 0 747 490 
Q 353 981 353 1791 
Q 353 2603 747 3093 
Q 1141 3584 1784 3584 
Q 2172 3584 2450 3431 
Q 2728 3278 2906 2969 
L 2906 3500 
L 3481 3500 
L 3481 434 
z
" transform="scale(0.015625)"/>
       <path id="DejaVuSans-30" d="M 2034 4250 
Q 1547 4250 1301 3770 
Q 1056 3291 1056 2328 
Q 1056 1369 1301 889 
Q 1547 409 2034 409 
Q 2525 409 2770 889 
Q 3016 1369 3016 2328 
Q 3016 3291 2770 3770 
Q 2525 4250 2034 4250 
z
M 2034 4750 
Q 2819 4750 3233 4129 
Q 3647 3509 3647 2328 
Q 3647 1150 3233 529 
Q 2819 -91 2034 -91 
Q 1250 -91 836 529 
Q 422 1150 422 2328 
Q 422 3509 836 4129 
Q 1250 4750 2034 4750 
z
" transform="scale(0.015625)"/>
       <path id="DejaVuSans-20" transform="scale(0.015625)"/>
       <path id="DejaVuSans-66" d="M 2375 4863 
L 2375 4384 
L 1825 4384 
Q 1516 4384 1395 4259 
Q 1275 4134 1275 3809 
L 1275 3500 
L 2222 3500 
L 2222 3053 
L 1275 3053 
L 1275 0 
L 697 0 
L 697 3053 
L 147 3053 
L 147 3500 
L 697 3500 
L 697 3744 
Q 697 4328 969 4595 
Q 1241 4863 1831 4863 
L 2375 4863 
z
" transform="scale(0.015625)"/>
       <path id="DejaVuSans-46" d="M 628 4666 
L 3309 4666 
L 3309 4134 
L 1259 4134 
L 1259 2759 
L 3109 2759 
L 3109 2228 
L 1259 2228 
L 1259 0 
L 628 0 
L 628 4666 
z
" transform="scale(0.015625)"/>
       <path id="DejaVuSans-45" d="M 628 4666 
L 3578 4666 
L 3578 4134 
L 1259 4134 
L 1259 2753 
L 3481 2753 
L 3481 2222 
L 1259 2222 
L 1259 531 
L 3634 531 
L 3634 0 
L 628 0 
L 628 4666 
z
" transform="scale(0.015625)"/>
       <path id="DejaVuSans-76" d="M 191 3500 
L 800 3500 
L 1894 563 
L 2988 3500 
L 3597 3500 
L 2284 0 
L 1503 0 
L 191 3500 
z
" transform="scale(0.015625)"/>
       <path id="DejaVuSans-61" d="M 2194 1759 
Q 1497 1759 1228 1600 
Q 959 1441 959 1056 
Q 959 750 1161 570 
Q 1363 391 1709 391 
Q 2188 391 2477 730 
Q 2766 1069 2766 1631 
L 2766 1759 
L 2194 1759 
z
M 3341 1997 
L 3341 0 
L 2766 0 
L 2766 531 
Q 2569 213 2275 61 
Q 1981 -91 1556 -91 
Q 1019 -91 701 211 
Q 384 513 384 1019 
Q 384 1609 779 1909 
Q 1175 2209 1959 2209 
L 2766 2209 
L 2766 2266 
Q 2766 2663 2505 2880 
Q 2244 3097 1772 3097 
Q 1472 3097 1187 3025 
Q 903 2953 641 2809 
L 641 3341 
Q 956 3463 1253 3523 
Q 1550 3584 1831 3584 
Q 2591 3584 2966 3190 
Q 3341 2797 3341 1997 
z
" transform="scale(0.015625)"/>
       <path id="DejaVuSans-73" d="M 2834 3397 
L 2834 2853 
Q 2591 2978 2328 3040 
Q 2066 3103 1784 3103 
Q 1356 3103 1142 2972 
Q 928 2841 928 2578 
Q 928 2378 1081 2264 
Q 1234 2150 1697 2047 
L 1894 2003 
Q 2506 1872 2764 1633 
Q 3022 1394 3022 966 
Q 3022 478 2636 193 
Q 2250 -91 1575 -91 
Q 1294 -91 989 -36 
Q 684 19 347 128 
L 347 722 
Q 666 556 975 473 
Q 1284 391 1588 391 
Q 1994 391 2212 530 
Q 2431 669 2431 922 
Q 2431 1156 2273 1281 
Q 2116 1406 1581 1522 
L 1381 1569 
Q 847 1681 609 1914 
Q 372 2147 372 2553 
Q 372 3047 722 3315 
Q 1072 3584 1716 3584 
Q 2034 3584 2315 3537 
Q 2597 3491 2834 3397 
z
" transform="scale(0.015625)"/>
       <path id="DejaVuSans-2f" d="M 1625 4666 
L 2156 4666 
L 531 -594 
L 0 -594 
L 1625 4666 
z
" transform="scale(0.015625)"/>
       <path id="DejaVuSans-44" d="M 1259 4147 
L 1259 519 
L 2022 519 
Q 2988 519 3436 956 
Q 3884 1394 3884 2338 
Q 3884 3275 3436 3711 
Q 2988 4147 2022 4147 
L 1259 4147 
z
M 628 4666 
L 1925 4666 
Q 3281 4666 3915 4102 
Q 4550 3538 4550 2338 
Q 4550 1131 3912 565 
Q 3275 0 1925 0 
L 628 0 
L 628 4666 
z
" transform="scale(0.015625)"/>
       <path id="DejaVuSans-49" d="M 628 4666 
L 1259 4666 
L 1259 0 
L 628 0 
L 628 4666 
z
" transform="scale(0.015625)"/>
       <path id="DejaVuSans-4d" d="M 628 4666 
L 1569 4666 
L 2759 1491 
L 3956 4666 
L 4897 4666 
L 4897 0 
L 4281 0 
L 4281 4097 
L 3078 897 
L 2444 897 
L 1241 4097 
L 1241 0 
L 628 0 
L 628 4666 
z
" transform="scale(0.015625)"/>
      </defs>
      <use xlink:href="#DejaVuSans-6c"/>
      <use xlink:href="#DejaVuSans-6f" transform="translate(27.783203 0)"/>
      <use xlink:href="#DejaVuSans-67" transform="translate(88.964844 0)"/>
      <use xlink:href="#DejaVuSans-31" transform="translate(152.441406 0)"/>
      <use xlink:href="#DejaVuSans-30" transform="translate(216.064453 0)"/>
      <use xlink:href="#DejaVuSans-20" transform="translate(279.6875 0)"/>
      <use xlink:href="#DejaVuSans-6f" transform="translate(311.474609 0)"/>
      <use xlink:href="#DejaVuSans-66" transform="translate(372.65625 0)"/>
      <use xlink:href="#DejaVuSans-20" transform="translate(407.861328 0)"/>
      <use xlink:href="#DejaVuSans-46" transform="translate(439.648438 0)"/>
      <use xlink:href="#DejaVuSans-45" transform="translate(497.167969 0)"/>
      <use xlink:href="#DejaVuSans-76" transform="translate(560.351562 0)"/>
      <use xlink:href="#DejaVuSans-61" transform="translate(619.53125 0)"/>
      <use xlink:href="#DejaVuSans-6c" transform="translate(680.810547 0)"/>
      <use xlink:href="#DejaVuSans-73" transform="translate(708.59375 0)"/>
      <use xlink:href="#DejaVuSans-20" transform="translate(760.693359 0)"/>
      <use xlink:href="#DejaVuSans-2f" transform="translate(792.480469 0)"/>
      <use xlink:href="#DejaVuSans-20" transform="translate(826.171875 0)"/>
      <use xlink:href="#DejaVuSans-44" transform="translate(857.958984 0)"/>
      <use xlink:href="#DejaVuSans-49" transform="translate(934.960938 0)"/>
      <use xlink:href="#DejaVuSans-4d" transform="translate(964.453125 0)"/>
     </g>
    </g>
   </g>
   <g id="matplotlib.axis_2">
    <g id="ytick_1">
     <g id="line2d_75">
      <path d="M 62.208 293.76 
L 460.8 293.76 
" clip-path="url(#pf3c79c4b1f)" style="fill: none; stroke: #b0b0b0; stroke-width: 0.8; stroke-linecap: square"/>
     </g>
     <g id="line2d_76">
      <defs>
       <path id="mdefdd3600a" d="M 0 0 
L -3.5 0 
" style="stroke: #000000; stroke-width: 0.8"/>
      </defs>
      <g>
       <use xlink:href="#mdefdd3600a" x="62.208" y="293.76" style="stroke: #000000; stroke-width: 0.8"/>
      </g>
     </g>
     <g id="text_3">
      <!-- 0.0 -->
      <g transform="translate(29.763 299.83875) scale(0.16 -0.16)">
       <defs>
        <path id="DejaVuSans-2e" d="M 684 794 
L 1344 794 
L 1344 0 
L 684 0 
L 684 794 
z
" transform="scale(0.015625)"/>
       </defs>
       <use xlink:href="#DejaVuSans-30"/>
       <use xlink:href="#DejaVuSans-2e" transform="translate(63.623047 0)"/>
       <use xlink:href="#DejaVuSans-30" transform="translate(95.410156 0)"/>
      </g>
     </g>
    </g>
    <g id="ytick_2">
     <g id="line2d_77">
      <path d="M 62.208 236.274059 
L 460.8 236.274059 
" clip-path="url(#pf3c79c4b1f)" style="fill: none; stroke: #b0b0b0; stroke-width: 0.8; stroke-linecap: square"/>
     </g>
     <g id="line2d_78">
      <g>
       <use xlink:href="#mdefdd3600a" x="62.208" y="236.274059" style="stroke: #000000; stroke-width: 0.8"/>
      </g>
     </g>
     <g id="text_4">
      <!-- 0.2 -->
      <g transform="translate(29.763 242.352809) scale(0.16 -0.16)">
       <defs>
        <path id="DejaVuSans-32" d="M 1228 531 
L 3431 531 
L 3431 0 
L 469 0 
L 469 531 
Q 828 903 1448 1529 
Q 2069 2156 2228 2338 
Q 2531 2678 2651 2914 
Q 2772 3150 2772 3378 
Q 2772 3750 2511 3984 
Q 2250 4219 1831 4219 
Q 1534 4219 1204 4116 
Q 875 4013 500 3803 
L 500 4441 
Q 881 4594 1212 4672 
Q 1544 4750 1819 4750 
Q 2544 4750 2975 4387 
Q 3406 4025 3406 3419 
Q 3406 3131 3298 2873 
Q 3191 2616 2906 2266 
Q 2828 2175 2409 1742 
Q 1991 1309 1228 531 
z
" transform="scale(0.015625)"/>
       </defs>
       <use xlink:href="#DejaVuSans-30"/>
       <use xlink:href="#DejaVuSans-2e" transform="translate(63.623047 0)"/>
       <use xlink:href="#DejaVuSans-32" transform="translate(95.410156 0)"/>
      </g>
     </g>
    </g>
    <g id="ytick_3">
     <g id="line2d_79">
      <path d="M 62.208 178.788119 
L 460.8 178.788119 
" clip-path="url(#pf3c79c4b1f)" style="fill: none; stroke: #b0b0b0; stroke-width: 0.8; stroke-linecap: square"/>
     </g>
     <g id="line2d_80">
      <g>
       <use xlink:href="#mdefdd3600a" x="62.208" y="178.788119" style="stroke: #000000; stroke-width: 0.8"/>
      </g>
     </g>
     <g id="text_5">
      <!-- 0.4 -->
      <g transform="translate(29.763 184.866869) scale(0.16 -0.16)">
       <defs>
        <path id="DejaVuSans-34" d="M 2419 4116 
L 825 1625 
L 2419 1625 
L 2419 4116 
z
M 2253 4666 
L 3047 4666 
L 3047 1625 
L 3713 1625 
L 3713 1100 
L 3047 1100 
L 3047 0 
L 2419 0 
L 2419 1100 
L 313 1100 
L 313 1709 
L 2253 4666 
z
" transform="scale(0.015625)"/>
       </defs>
       <use xlink:href="#DejaVuSans-30"/>
       <use xlink:href="#DejaVuSans-2e" transform="translate(63.623047 0)"/>
       <use xlink:href="#DejaVuSans-34" transform="translate(95.410156 0)"/>
      </g>
     </g>
    </g>
    <g id="ytick_4">
     <g id="line2d_81">
      <path d="M 62.208 121.302178 
L 460.8 121.302178 
" clip-path="url(#pf3c79c4b1f)" style="fill: none; stroke: #b0b0b0; stroke-width: 0.8; stroke-linecap: square"/>
     </g>
     <g id="line2d_82">
      <g>
       <use xlink:href="#mdefdd3600a" x="62.208" y="121.302178" style="stroke: #000000; stroke-width: 0.8"/>
      </g>
     </g>
     <g id="text_6">
      <!-- 0.6 -->
      <g transform="translate(29.763 127.380928) scale(0.16 -0.16)">
       <defs>
        <path id="DejaVuSans-36" d="M 2113 2584 
Q 1688 2584 1439 2293 
Q 1191 2003 1191 1497 
Q 1191 994 1439 701 
Q 1688 409 2113 409 
Q 2538 409 2786 701 
Q 3034 994 3034 1497 
Q 3034 2003 2786 2293 
Q 2538 2584 2113 2584 
z
M 3366 4563 
L 3366 3988 
Q 3128 4100 2886 4159 
Q 2644 4219 2406 4219 
Q 1781 4219 1451 3797 
Q 1122 3375 1075 2522 
Q 1259 2794 1537 2939 
Q 1816 3084 2150 3084 
Q 2853 3084 3261 2657 
Q 3669 2231 3669 1497 
Q 3669 778 3244 343 
Q 2819 -91 2113 -91 
Q 1303 -91 875 529 
Q 447 1150 447 2328 
Q 447 3434 972 4092 
Q 1497 4750 2381 4750 
Q 2619 4750 2861 4703 
Q 3103 4656 3366 4563 
z
" transform="scale(0.015625)"/>
       </defs>
       <use xlink:href="#DejaVuSans-30"/>
       <use xlink:href="#DejaVuSans-2e" transform="translate(63.623047 0)"/>
       <use xlink:href="#DejaVuSans-36" transform="translate(95.410156 0)"/>
      </g>
     </g>
    </g>
    <g id="ytick_5">
     <g id="line2d_83">
      <path d="M 62.208 63.816238 
L 460.8 63.816238 
" clip-path="url(#pf3c79c4b1f)" style="fill: none; stroke: #b0b0b0; stroke-width: 0.8; stroke-linecap: square"/>
     </g>
     <g id="line2d_84">
      <g>
       <use xlink:href="#mdefdd3600a" x="62.208" y="63.816238" style="stroke: #000000; stroke-width: 0.8"/>
      </g>
     </g>
     <g id="text_7">
      <!-- 0.8 -->
      <g transform="translate(29.763 69.894988) scale(0.16 -0.16)">
       <defs>
        <path id="DejaVuSans-38" d="M 2034 2216 
Q 1584 2216 1326 1975 
Q 1069 1734 1069 1313 
Q 1069 891 1326 650 
Q 1584 409 2034 409 
Q 2484 409 2743 651 
Q 3003 894 3003 1313 
Q 3003 1734 2745 1975 
Q 2488 2216 2034 2216 
z
M 1403 2484 
Q 997 2584 770 2862 
Q 544 3141 544 3541 
Q 544 4100 942 4425 
Q 1341 4750 2034 4750 
Q 2731 4750 3128 4425 
Q 3525 4100 3525 3541 
Q 3525 3141 3298 2862 
Q 3072 2584 2669 2484 
Q 3125 2378 3379 2068 
Q 3634 1759 3634 1313 
Q 3634 634 3220 271 
Q 2806 -91 2034 -91 
Q 1263 -91 848 271 
Q 434 634 434 1313 
Q 434 1759 690 2068 
Q 947 2378 1403 2484 
z
M 1172 3481 
Q 1172 3119 1398 2916 
Q 1625 2713 2034 2713 
Q 2441 2713 2670 2916 
Q 2900 3119 2900 3481 
Q 2900 3844 2670 4047 
Q 2441 4250 2034 4250 
Q 1625 4250 1398 4047 
Q 1172 3844 1172 3481 
z
" transform="scale(0.015625)"/>
       </defs>
       <use xlink:href="#DejaVuSans-30"/>
       <use xlink:href="#DejaVuSans-2e" transform="translate(63.623047 0)"/>
       <use xlink:href="#DejaVuSans-38" transform="translate(95.410156 0)"/>
      </g>
     </g>
    </g>
    <g id="ytick_6">
     <g id="line2d_85">
      <path d="M 62.208 6.330297 
L 460.8 6.330297 
" clip-path="url(#pf3c79c4b1f)" style="fill: none; stroke: #b0b0b0; stroke-width: 0.8; stroke-linecap: square"/>
     </g>
     <g id="line2d_86">
      <g>
       <use xlink:href="#mdefdd3600a" x="62.208" y="6.330297" style="stroke: #000000; stroke-width: 0.8"/>
      </g>
     </g>
     <g id="text_8">
      <!-- 1.0 -->
      <g transform="translate(29.763 12.409047) scale(0.16 -0.16)">
       <use xlink:href="#DejaVuSans-31"/>
       <use xlink:href="#DejaVuSans-2e" transform="translate(63.623047 0)"/>
       <use xlink:href="#DejaVuSans-30" transform="translate(95.410156 0)"/>
      </g>
     </g>
    </g>
    <g id="text_9">
     <!-- proportion of trials -->
     <g transform="translate(21.603625 241.61425) rotate(-90) scale(0.2 -0.2)">
      <defs>
       <path id="DejaVuSans-70" d="M 1159 525 
L 1159 -1331 
L 581 -1331 
L 581 3500 
L 1159 3500 
L 1159 2969 
Q 1341 3281 1617 3432 
Q 1894 3584 2278 3584 
Q 2916 3584 3314 3078 
Q 3713 2572 3713 1747 
Q 3713 922 3314 415 
Q 2916 -91 2278 -91 
Q 1894 -91 1617 61 
Q 1341 213 1159 525 
z
M 3116 1747 
Q 3116 2381 2855 2742 
Q 2594 3103 2138 3103 
Q 1681 3103 1420 2742 
Q 1159 2381 1159 1747 
Q 1159 1113 1420 752 
Q 1681 391 2138 391 
Q 2594 391 2855 752 
Q 3116 1113 3116 1747 
z
" transform="scale(0.015625)"/>
       <path id="DejaVuSans-72" d="M 2631 2963 
Q 2534 3019 2420 3045 
Q 2306 3072 2169 3072 
Q 1681 3072 1420 2755 
Q 1159 2438 1159 1844 
L 1159 0 
L 581 0 
L 581 3500 
L 1159 3500 
L 1159 2956 
Q 1341 3275 1631 3429 
Q 1922 3584 2338 3584 
Q 2397 3584 2469 3576 
Q 2541 3569 2628 3553 
L 2631 2963 
z
" transform="scale(0.015625)"/>
       <path id="DejaVuSans-74" d="M 1172 4494 
L 1172 3500 
L 2356 3500 
L 2356 3053 
L 1172 3053 
L 1172 1153 
Q 1172 725 1289 603 
Q 1406 481 1766 481 
L 2356 481 
L 2356 0 
L 1766 0 
Q 1100 0 847 248 
Q 594 497 594 1153 
L 594 3053 
L 172 3053 
L 172 3500 
L 594 3500 
L 594 4494 
L 1172 4494 
z
" transform="scale(0.015625)"/>
       <path id="DejaVuSans-69" d="M 603 3500 
L 1178 3500 
L 1178 0 
L 603 0 
L 603 3500 
z
M 603 4863 
L 1178 4863 
L 1178 4134 
L 603 4134 
L 603 4863 
z
" transform="scale(0.015625)"/>
       <path id="DejaVuSans-6e" d="M 3513 2113 
L 3513 0 
L 2938 0 
L 2938 2094 
Q 2938 2591 2744 2837 
Q 2550 3084 2163 3084 
Q 1697 3084 1428 2787 
Q 1159 2491 1159 1978 
L 1159 0 
L 581 0 
L 581 3500 
L 1159 3500 
L 1159 2956 
Q 1366 3272 1645 3428 
Q 1925 3584 2291 3584 
Q 2894 3584 3203 3211 
Q 3513 2838 3513 2113 
z
" transform="scale(0.015625)"/>
      </defs>
      <use xlink:href="#DejaVuSans-70"/>
      <use xlink:href="#DejaVuSans-72" transform="translate(63.476562 0)"/>
      <use xlink:href="#DejaVuSans-6f" transform="translate(102.339844 0)"/>
      <use xlink:href="#DejaVuSans-70" transform="translate(163.521484 0)"/>
      <use xlink:href="#DejaVuSans-6f" transform="translate(226.998047 0)"/>
      <use xlink:href="#DejaVuSans-72" transform="translate(288.179688 0)"/>
      <use xlink:href="#DejaVuSans-74" transform="translate(329.292969 0)"/>
      <use xlink:href="#DejaVuSans-69" transform="translate(368.501953 0)"/>
      <use xlink:href="#DejaVuSans-6f" transform="translate(396.285156 0)"/>
      <use xlink:href="#DejaVuSans-6e" transform="translate(457.466797 0)"/>
      <use xlink:href="#DejaVuSans-20" transform="translate(520.845703 0)"/>
      <use xlink:href="#DejaVuSans-6f" transform="translate(552.632812 0)"/>
      <use xlink:href="#DejaVuSans-66" transform="translate(613.814453 0)"/>
      <use xlink:href="#DejaVuSans-20" transform="translate(649.019531 0)"/>
      <use xlink:href="#DejaVuSans-74" transform="translate(680.806641 0)"/>
      <use xlink:href="#DejaVuSans-72" transform="translate(720.015625 0)"/>
      <use xlink:href="#DejaVuSans-69" transform="translate(761.128906 0)"/>
      <use xlink:href="#DejaVuSans-61" transform="translate(788.912109 0)"/>
      <use xlink:href="#DejaVuSans-6c" transform="translate(850.191406 0)"/>
      <use xlink:href="#DejaVuSans-73" transform="translate(877.974609 0)"/>
     </g>
    </g>
   </g>
   <g id="line2d_87">
    <path d="M 5.68429 293.76 
L 5.68429 287.372673 
L 62.208 287.372673 
L 62.208 280.985347 
L 73.454966 280.985347 
L 73.454966 274.59802 
L 82.964141 274.59802 
L 82.964141 268.210693 
L 161.490247 268.210693 
L 161.490247 261.823366 
L 178.616662 261.823366 
L 178.616662 255.43604 
L 183.984179 255.43604 
L 183.984179 249.048713 
L 185.674354 249.048713 
L 185.674354 242.661386 
L 190.483609 242.661386 
L 190.483609 236.274059 
L 199.105177 236.274059 
L 199.105177 229.886733 
L 231.680352 229.886733 
L 231.680352 223.499406 
L 234.008459 223.499406 
L 234.008459 217.112079 
L 236.981928 217.112079 
L 236.981928 210.724752 
L 240.507889 210.724752 
L 240.507889 204.337426 
L 244.489111 204.337426 
L 244.489111 197.950099 
L 345.794081 197.950099 
L 345.794081 191.562772 
L 358.858821 191.562772 
L 358.858821 185.175446 
L 371.956221 185.175446 
L 371.956221 178.788119 
L 375.896739 178.788119 
L 375.896739 172.400792 
L 377.255883 172.400792 
L 377.255883 166.013465 
L 378.804605 166.013465 
L 378.804605 159.626139 
L 380.315395 159.626139 
L 380.315395 153.238812 
L 380.74034 153.238812 
L 380.74034 146.851485 
L 381.302417 146.851485 
L 381.302417 140.464158 
L 381.302417 140.464158 
L 381.302417 134.076832 
L 384.172122 134.076832 
L 384.172122 127.689505 
L 387.296208 127.689505 
L 387.296208 121.302178 
L 387.675825 121.302178 
L 387.675825 114.914851 
L 387.675825 114.914851 
L 387.675825 108.527525 
L 390.931373 108.527525 
L 390.931373 102.140198 
L 390.991177 102.140198 
L 390.991177 95.752871 
L 393.509385 95.752871 
L 393.509385 89.365545 
L 395.873612 89.365545 
L 395.873612 82.978218 
L 401.516643 82.978218 
L 401.516643 76.590891 
L 403.54912 76.590891 
L 403.54912 70.203564 
L 405.090184 70.203564 
L 405.090184 63.816238 
L 406.732779 63.816238 
L 406.732779 57.428911 
L 412.981616 57.428911 
L 412.981616 51.041584 
L 413.977937 51.041584 
L 413.977937 44.654257 
L 419.376331 44.654257 
L 419.376331 38.266931 
L 422.430975 38.266931 
L 422.430975 31.879604 
L 422.824689 31.879604 
L 422.824689 25.492277 
L 445.150904 25.492277 
L 445.150904 19.10495 
L 449.975684 19.10495 
L 449.975684 12.717624 
L 449.975684 12.717624 
L 449.975684 12.717624 
L 460.8 12.717624 
" clip-path="url(#pf3c79c4b1f)" style="fill: none; stroke: #000000; stroke-width: 1.5; stroke-linecap: square"/>
   </g>
   <g id="line2d_88">
    <path clip-path="url(#pf3c79c4b1f)" style="fill: none; stroke: #000000; stroke-width: 1.5; stroke-linecap: square"/>
   </g>
   <g id="line2d_89">
    <path d="M 316.601405 293.76 
L 316.601405 287.372673 
L 321.03018 287.372673 
L 321.03018 280.985347 
L 326.875838 280.985347 
L 326.875838 274.59802 
L 327.548188 274.59802 
L 327.548188 268.210693 
L 330.804222 268.210693 
L 330.804222 261.823366 
L 331.904411 261.823366 
L 331.904411 255.43604 
L 335.534136 255.43604 
L 335.534136 249.048713 
L 339.790136 249.048713 
L 339.790136 242.661386 
L 340.877169 242.661386 
L 340.877169 236.274059 
L 341.011711 236.274059 
L 341.011711 229.886733 
L 345.169075 229.886733 
L 345.169075 223.499406 
L 347.993077 223.499406 
L 347.993077 217.112079 
L 350.116375 217.112079 
L 350.116375 210.724752 
L 360.350131 210.724752 
L 360.350131 204.337426 
L 361.997814 204.337426 
L 361.997814 197.950099 
L 410.679257 197.950099 
L 410.679257 191.562772 
L 411.841177 191.562772 
L 411.841177 185.175446 
L 413.564757 185.175446 
L 413.564757 178.788119 
L 414.388368 178.788119 
L 414.388368 172.400792 
L 415.120331 172.400792 
L 415.120331 166.013465 
L 422.967236 166.013465 
L 422.967236 159.626139 
L 425.135615 159.626139 
L 425.135615 153.238812 
L 427.329931 153.238812 
L 427.329931 146.851485 
L 428.804604 146.851485 
L 428.804604 140.464158 
L 432.083609 140.464158 
L 432.083609 134.076832 
L 451.742188 134.076832 
L 451.742188 127.689505 
L 455.003388 127.689505 
L 455.003388 121.302178 
L 458.402158 121.302178 
L 458.402158 114.914851 
L 460.742141 114.914851 
L 460.742141 108.527525 
L 460.742141 108.527525 
L 460.742141 108.527525 
L 460.8 108.527525 
" clip-path="url(#pf3c79c4b1f)" style="fill: none; stroke: #00bfbf; stroke-width: 1.5; stroke-linecap: square"/>
   </g>
   <g id="line2d_90">
    <path clip-path="url(#pf3c79c4b1f)" style="fill: none; stroke: #00bfbf; stroke-width: 1.5; stroke-linecap: square"/>
   </g>
   <g id="line2d_91">
    <path d="M 378.877392 293.76 
L 378.877392 287.372673 
L 379.240048 287.372673 
L 379.240048 280.985347 
L 379.456622 280.985347 
L 379.456622 274.59802 
L 381.232437 274.59802 
L 381.232437 268.210693 
L 382.136045 268.210693 
L 382.136045 261.823366 
L 382.480092 261.823366 
L 382.480092 255.43604 
L 383.094583 255.43604 
L 383.094583 249.048713 
L 383.770247 249.048713 
L 383.770247 242.661386 
L 389.355771 242.661386 
L 389.355771 236.274059 
L 390.631482 236.274059 
L 390.631482 229.886733 
L 394.364191 229.886733 
L 394.364191 223.499406 
L 394.53374 223.499406 
L 394.53374 217.112079 
L 394.53374 217.112079 
L 394.53374 210.724752 
L 411.627652 210.724752 
L 411.627652 204.337426 
L 413.523287 204.337426 
L 413.523287 197.950099 
L 428.44737 197.950099 
L 428.44737 191.562772 
L 428.479932 191.562772 
L 428.479932 185.175446 
L 429.608885 185.175446 
L 429.608885 178.788119 
L 441.728616 178.788119 
L 441.728616 172.400792 
L 443.233264 172.400792 
L 443.233264 166.013465 
L 444.123799 166.013465 
L 444.123799 159.626139 
L 450.15921 159.626139 
L 450.15921 153.238812 
L 459.139269 153.238812 
L 459.139269 146.851485 
L 460.296742 146.851485 
L 460.296742 140.464158 
L 460.664911 140.464158 
L 460.664911 134.076832 
L 460.664911 134.076832 
L 460.664911 134.076832 
L 460.8 134.076832 
" clip-path="url(#pf3c79c4b1f)" style="fill: none; stroke: #bf00bf; stroke-width: 1.5; stroke-linecap: square"/>
   </g>
   <g id="line2d_92">
    <path clip-path="url(#pf3c79c4b1f)" style="fill: none; stroke: #bf00bf; stroke-width: 1.5; stroke-linecap: square"/>
   </g>
   <g id="line2d_93">
    <path d="M 410.896085 293.76 
L 410.896085 287.372673 
L 427.429347 287.372673 
L 427.429347 280.985347 
L 427.429347 280.985347 
L 427.429347 280.985347 
L 460.8 280.985347 
" clip-path="url(#pf3c79c4b1f)" style="fill: none; stroke: #ff0000; stroke-width: 3; stroke-linecap: square"/>
   </g>
   <g id="line2d_94">
    <path clip-path="url(#pf3c79c4b1f)" style="fill: none; stroke: #ff0000; stroke-width: 3; stroke-linecap: square"/>
   </g>
   <g id="line2d_95">
    <path d="M 460.8 293.76 
L 460.8 3.456 
" clip-path="url(#pf3c79c4b1f)" style="fill: none; stroke: #000000; stroke-width: 1.5; stroke-linecap: square"/>
   </g>
   <g id="patch_3">
    <path d="M 62.208 293.76 
L 62.208 3.456 
" style="fill: none; stroke: #000000; stroke-width: 0.8; stroke-linejoin: miter; stroke-linecap: square"/>
   </g>
   <g id="patch_4">
    <path d="M 460.8 293.76 
L 460.8 3.456 
" style="fill: none; stroke: #000000; stroke-width: 0.8; stroke-linejoin: miter; stroke-linecap: square"/>
   </g>
   <g id="patch_5">
    <path d="M 62.208 293.76 
L 460.8 293.76 
" style="fill: none; stroke: #000000; stroke-width: 0.8; stroke-linejoin: miter; stroke-linecap: square"/>
   </g>
   <g id="patch_6">
    <path d="M 62.208 3.456 
L 460.8 3.456 
" style="fill: none; stroke: #000000; stroke-width: 0.8; stroke-linejoin: miter; stroke-linecap: square"/>
   </g>
   <g id="text_10">
    <!-- {f1-f3}, 5-D -->
    <g transform="translate(201.379 24.458955) scale(0.2 -0.2)">
     <defs>
      <path id="DejaVuSans-7b" d="M 3272 -594 
L 3272 -1044 
L 3078 -1044 
Q 2300 -1044 2036 -812 
Q 1772 -581 1772 109 
L 1772 856 
Q 1772 1328 1603 1509 
Q 1434 1691 991 1691 
L 800 1691 
L 800 2138 
L 991 2138 
Q 1438 2138 1605 2317 
Q 1772 2497 1772 2963 
L 1772 3713 
Q 1772 4403 2036 4633 
Q 2300 4863 3078 4863 
L 3272 4863 
L 3272 4416 
L 3059 4416 
Q 2619 4416 2484 4278 
Q 2350 4141 2350 3700 
L 2350 2925 
Q 2350 2434 2208 2212 
Q 2066 1991 1722 1913 
Q 2069 1828 2209 1606 
Q 2350 1384 2350 897 
L 2350 122 
Q 2350 -319 2484 -456 
Q 2619 -594 3059 -594 
L 3272 -594 
z
" transform="scale(0.015625)"/>
      <path id="DejaVuSans-2d" d="M 313 2009 
L 1997 2009 
L 1997 1497 
L 313 1497 
L 313 2009 
z
" transform="scale(0.015625)"/>
      <path id="DejaVuSans-33" d="M 2597 2516 
Q 3050 2419 3304 2112 
Q 3559 1806 3559 1356 
Q 3559 666 3084 287 
Q 2609 -91 1734 -91 
Q 1441 -91 1130 -33 
Q 819 25 488 141 
L 488 750 
Q 750 597 1062 519 
Q 1375 441 1716 441 
Q 2309 441 2620 675 
Q 2931 909 2931 1356 
Q 2931 1769 2642 2001 
Q 2353 2234 1838 2234 
L 1294 2234 
L 1294 2753 
L 1863 2753 
Q 2328 2753 2575 2939 
Q 2822 3125 2822 3475 
Q 2822 3834 2567 4026 
Q 2313 4219 1838 4219 
Q 1578 4219 1281 4162 
Q 984 4106 628 3988 
L 628 4550 
Q 988 4650 1302 4700 
Q 1616 4750 1894 4750 
Q 2613 4750 3031 4423 
Q 3450 4097 3450 3541 
Q 3450 3153 3228 2886 
Q 3006 2619 2597 2516 
z
" transform="scale(0.015625)"/>
      <path id="DejaVuSans-7d" d="M 800 -594 
L 1019 -594 
Q 1456 -594 1589 -459 
Q 1722 -325 1722 122 
L 1722 897 
Q 1722 1384 1862 1606 
Q 2003 1828 2350 1913 
Q 2003 1991 1862 2212 
Q 1722 2434 1722 2925 
L 1722 3700 
Q 1722 4144 1589 4280 
Q 1456 4416 1019 4416 
L 800 4416 
L 800 4863 
L 997 4863 
Q 1775 4863 2036 4633 
Q 2297 4403 2297 3713 
L 2297 2963 
Q 2297 2497 2465 2317 
Q 2634 2138 3078 2138 
L 3272 2138 
L 3272 1691 
L 3078 1691 
Q 2634 1691 2465 1509 
Q 2297 1328 2297 856 
L 2297 109 
Q 2297 -581 2036 -812 
Q 1775 -1044 997 -1044 
L 800 -1044 
L 800 -594 
z
" transform="scale(0.015625)"/>
      <path id="DejaVuSans-2c" d="M 750 794 
L 1409 794 
L 1409 256 
L 897 -744 
L 494 -744 
L 750 256 
L 750 794 
z
" transform="scale(0.015625)"/>
      <path id="DejaVuSans-35" d="M 691 4666 
L 3169 4666 
L 3169 4134 
L 1269 4134 
L 1269 2991 
Q 1406 3038 1543 3061 
Q 1681 3084 1819 3084 
Q 2600 3084 3056 2656 
Q 3513 2228 3513 1497 
Q 3513 744 3044 326 
Q 2575 -91 1722 -91 
Q 1428 -91 1123 -41 
Q 819 9 494 109 
L 494 744 
Q 775 591 1075 516 
Q 1375 441 1709 441 
Q 2250 441 2565 725 
Q 2881 1009 2881 1497 
Q 2881 1984 2565 2268 
Q 2250 2553 1709 2553 
Q 1456 2553 1204 2497 
Q 953 2441 691 2322 
L 691 4666 
z
" transform="scale(0.015625)"/>
     </defs>
     <use xlink:href="#DejaVuSans-7b"/>
     <use xlink:href="#DejaVuSans-66" transform="translate(63.623047 0)"/>
     <use xlink:href="#DejaVuSans-31" transform="translate(98.828125 0)"/>
     <use xlink:href="#DejaVuSans-2d" transform="translate(162.451172 0)"/>
     <use xlink:href="#DejaVuSans-66" transform="translate(198.535156 0)"/>
     <use xlink:href="#DejaVuSans-33" transform="translate(233.740234 0)"/>
     <use xlink:href="#DejaVuSans-7d" transform="translate(297.363281 0)"/>
     <use xlink:href="#DejaVuSans-2c" transform="translate(360.986328 0)"/>
     <use xlink:href="#DejaVuSans-20" transform="translate(392.773438 0)"/>
     <use xlink:href="#DejaVuSans-35" transform="translate(424.560547 0)"/>
     <use xlink:href="#DejaVuSans-2d" transform="translate(488.183594 0)"/>
     <use xlink:href="#DejaVuSans-44" transform="translate(524.267578 0)"/>
    </g>
   </g>
   <g id="text_11">
    <!-- absolute targets -->
    <g transform="translate(62.208 609.932673) scale(0.14 -0.14)">
     <defs>
      <path id="DejaVuSans-62" d="M 3116 1747 
Q 3116 2381 2855 2742 
Q 2594 3103 2138 3103 
Q 1681 3103 1420 2742 
Q 1159 2381 1159 1747 
Q 1159 1113 1420 752 
Q 1681 391 2138 391 
Q 2594 391 2855 752 
Q 3116 1113 3116 1747 
z
M 1159 2969 
Q 1341 3281 1617 3432 
Q 1894 3584 2278 3584 
Q 2916 3584 3314 3078 
Q 3713 2572 3713 1747 
Q 3713 922 3314 415 
Q 2916 -91 2278 -91 
Q 1894 -91 1617 61 
Q 1341 213 1159 525 
L 1159 0 
L 581 0 
L 581 4863 
L 1159 4863 
L 1159 2969 
z
" transform="scale(0.015625)"/>
      <path id="DejaVuSans-75" d="M 544 1381 
L 544 3500 
L 1119 3500 
L 1119 1403 
Q 1119 906 1312 657 
Q 1506 409 1894 409 
Q 2359 409 2629 706 
Q 2900 1003 2900 1516 
L 2900 3500 
L 3475 3500 
L 3475 0 
L 2900 0 
L 2900 538 
Q 2691 219 2414 64 
Q 2138 -91 1772 -91 
Q 1169 -91 856 284 
Q 544 659 544 1381 
z
M 1991 3584 
L 1991 3584 
z
" transform="scale(0.015625)"/>
      <path id="DejaVuSans-65" d="M 3597 1894 
L 3597 1613 
L 953 1613 
Q 991 1019 1311 708 
Q 1631 397 2203 397 
Q 2534 397 2845 478 
Q 3156 559 3463 722 
L 3463 178 
Q 3153 47 2828 -22 
Q 2503 -91 2169 -91 
Q 1331 -91 842 396 
Q 353 884 353 1716 
Q 353 2575 817 3079 
Q 1281 3584 2069 3584 
Q 2775 3584 3186 3129 
Q 3597 2675 3597 1894 
z
M 3022 2063 
Q 3016 2534 2758 2815 
Q 2500 3097 2075 3097 
Q 1594 3097 1305 2825 
Q 1016 2553 972 2059 
L 3022 2063 
z
" transform="scale(0.015625)"/>
     </defs>
     <use xlink:href="#DejaVuSans-61"/>
     <use xlink:href="#DejaVuSans-62" transform="translate(61.279297 0)"/>
     <use xlink:href="#DejaVuSans-73" transform="translate(124.755859 0)"/>
     <use xlink:href="#DejaVuSans-6f" transform="translate(176.855469 0)"/>
     <use xlink:href="#DejaVuSans-6c" transform="translate(238.037109 0)"/>
     <use xlink:href="#DejaVuSans-75" transform="translate(265.820312 0)"/>
     <use xlink:href="#DejaVuSans-74" transform="translate(329.199219 0)"/>
     <use xlink:href="#DejaVuSans-65" transform="translate(368.408203 0)"/>
     <use xlink:href="#DejaVuSans-20" transform="translate(429.931641 0)"/>
     <use xlink:href="#DejaVuSans-74" transform="translate(461.71875 0)"/>
     <use xlink:href="#DejaVuSans-61" transform="translate(500.927734 0)"/>
     <use xlink:href="#DejaVuSans-72" transform="translate(562.207031 0)"/>
     <use xlink:href="#DejaVuSans-67" transform="translate(601.570312 0)"/>
     <use xlink:href="#DejaVuSans-65" transform="translate(665.046875 0)"/>
     <use xlink:href="#DejaVuSans-74" transform="translate(726.570312 0)"/>
     <use xlink:href="#DejaVuSans-73" transform="translate(765.779297 0)"/>
    </g>
   </g>
   <g id="text_12">
    <!-- v2.7.3 -->
    <g style="fill: #808080" transform="translate(248.959 289.19321) scale(0.08 -0.08)">
     <defs>
      <path id="DejaVuSans-37" d="M 525 4666 
L 3525 4666 
L 3525 4397 
L 1831 0 
L 1172 0 
L 2766 4134 
L 525 4134 
L 525 4666 
z
" transform="scale(0.015625)"/>
     </defs>
     <use xlink:href="#DejaVuSans-76"/>
     <use xlink:href="#DejaVuSans-32" transform="translate(59.179688 0)"/>
     <use xlink:href="#DejaVuSans-2e" transform="translate(122.802734 0)"/>
     <use xlink:href="#DejaVuSans-37" transform="translate(154.589844 0)"/>
     <use xlink:href="#DejaVuSans-2e" transform="translate(218.212891 0)"/>
     <use xlink:href="#DejaVuSans-33" transform="translate(250 0)"/>
    </g>
   </g>
   <g id="legend_1">
    <g id="patch_7">
     <path d="M 76.208 136.881 
L 205.429875 136.881 
Q 209.429875 136.881 209.429875 132.881 
L 209.429875 17.456 
Q 209.429875 13.456 205.429875 13.456 
L 76.208 13.456 
Q 72.208 13.456 72.208 17.456 
L 72.208 132.881 
Q 72.208 136.881 76.208 136.881 
z
" style="fill: #ffffff; opacity: 0.2; stroke: #cccccc; stroke-linejoin: miter"/>
    </g>
    <g id="line2d_96">
     <path d="M 80.208 29.652875 
L 80.208 29.652875 
L 100.208 29.652875 
L 100.208 29.652875 
L 120.208 29.652875 
" style="fill: none; stroke: #000000; stroke-width: 1.5; stroke-linecap: square"/>
    </g>
    <g id="text_13">
     <!-- 1: 3/3 -->
     <g transform="translate(136.208 36.652875) scale(0.2 -0.2)">
      <defs>
       <path id="DejaVuSans-3a" d="M 750 794 
L 1409 794 
L 1409 0 
L 750 0 
L 750 794 
z
M 750 3309 
L 1409 3309 
L 1409 2516 
L 750 2516 
L 750 3309 
z
" transform="scale(0.015625)"/>
      </defs>
      <use xlink:href="#DejaVuSans-31"/>
      <use xlink:href="#DejaVuSans-3a" transform="translate(63.623047 0)"/>
      <use xlink:href="#DejaVuSans-20" transform="translate(97.314453 0)"/>
      <use xlink:href="#DejaVuSans-33" transform="translate(129.101562 0)"/>
      <use xlink:href="#DejaVuSans-2f" transform="translate(192.724609 0)"/>
      <use xlink:href="#DejaVuSans-33" transform="translate(226.416016 0)"/>
     </g>
    </g>
    <g id="line2d_97">
     <path d="M 80.208 59.009125 
L 80.208 59.009125 
L 100.208 59.009125 
L 100.208 59.009125 
L 120.208 59.009125 
" style="fill: none; stroke: #00bfbf; stroke-width: 1.5; stroke-linecap: square"/>
    </g>
    <g id="text_14">
     <!-- -1: 2/3 -->
     <g transform="translate(136.208 66.009125) scale(0.2 -0.2)">
      <use xlink:href="#DejaVuSans-2d"/>
      <use xlink:href="#DejaVuSans-31" transform="translate(36.083984 0)"/>
      <use xlink:href="#DejaVuSans-3a" transform="translate(99.707031 0)"/>
      <use xlink:href="#DejaVuSans-20" transform="translate(133.398438 0)"/>
      <use xlink:href="#DejaVuSans-32" transform="translate(165.185547 0)"/>
      <use xlink:href="#DejaVuSans-2f" transform="translate(228.808594 0)"/>
      <use xlink:href="#DejaVuSans-33" transform="translate(262.5 0)"/>
     </g>
    </g>
    <g id="line2d_98">
     <path d="M 80.208 88.365375 
L 80.208 88.365375 
L 100.208 88.365375 
L 100.208 88.365375 
L 120.208 88.365375 
" style="fill: none; stroke: #bf00bf; stroke-width: 1.5; stroke-linecap: square"/>
    </g>
    <g id="text_15">
     <!-- -4: 2/3 -->
     <g transform="translate(136.208 95.365375) scale(0.2 -0.2)">
      <use xlink:href="#DejaVuSans-2d"/>
      <use xlink:href="#DejaVuSans-34" transform="translate(36.083984 0)"/>
      <use xlink:href="#DejaVuSans-3a" transform="translate(99.707031 0)"/>
      <use xlink:href="#DejaVuSans-20" transform="translate(133.398438 0)"/>
      <use xlink:href="#DejaVuSans-32" transform="translate(165.185547 0)"/>
      <use xlink:href="#DejaVuSans-2f" transform="translate(228.808594 0)"/>
      <use xlink:href="#DejaVuSans-33" transform="translate(262.5 0)"/>
     </g>
    </g>
    <g id="line2d_99">
     <path d="M 80.208 117.721625 
L 80.208 117.721625 
L 100.208 117.721625 
L 100.208 117.721625 
L 120.208 117.721625 
" style="fill: none; stroke: #ff0000; stroke-width: 3; stroke-linecap: square"/>
    </g>
    <g id="text_16">
     <!-- -8: 1/3 -->
     <g transform="translate(136.208 124.721625) scale(0.2 -0.2)">
      <use xlink:href="#DejaVuSans-2d"/>
      <use xlink:href="#DejaVuSans-38" transform="translate(36.083984 0)"/>
      <use xlink:href="#DejaVuSans-3a" transform="translate(99.707031 0)"/>
      <use xlink:href="#DejaVuSans-20" transform="translate(133.398438 0)"/>
      <use xlink:href="#DejaVuSans-31" transform="translate(165.185547 0)"/>
      <use xlink:href="#DejaVuSans-2f" transform="translate(228.808594 0)"/>
      <use xlink:href="#DejaVuSans-33" transform="translate(262.5 0)"/>
     </g>
    </g>
   </g>
  </g>
 </g>
 <defs>
  <clipPath id="pf3c79c4b1f">
   <rect x="62.208" y="3.456" width="398.592" height="290.304"/>
  </clipPath>
 </defs>
</svg>
